<svg xmlns="http://www.w3.org/2000/svg" xmlns:xlink="http://www.w3.org/1999/xlink" viewBox="0 0 1174.41 1029.58"><defs><style>.cls-1{isolation:isolate;}.cls-2,.cls-39,.cls-40,.cls-41,.cls-42,.cls-43,.cls-44,.cls-45,.cls-46{fill:none;stroke-linecap:round;stroke-linejoin:round;}.cls-2{stroke:#8af7f5;}.cls-10,.cls-3{fill:#fff;}.cls-14,.cls-3{opacity:0.2;}.cls-4{fill:#076d6d;opacity:0.5;}.cls-5{fill:#48d7e5;}.cls-6{fill:#e0f9fe;}.cls-7{fill:#00399e;}.cls-8{fill:#c5eaef;}.cls-9{fill:#ededed;}.cls-11{fill:#4de4e8;}.cls-12,.cls-14{fill:#3a3a3a;mix-blend-mode:multiply;}.cls-12{opacity:0.3;}.cls-13,.cls-28{fill:#02f5d0;}.cls-15{fill:#f7b85c;}.cls-16{fill:#ffdc79;}.cls-17{fill:#ffe6a6;}.cls-18{fill:#011a5f;}.cls-19{fill:#0c3184;}.cls-20{fill:#ffa15a;}.cls-21,.cls-30{fill:#ff9136;}.cls-22{fill:#fdefea;}.cls-23{fill:#5cebf2;}.cls-24{fill:#0b4656;}.cls-25{fill:#063444;}.cls-26{fill:#71606e;}.cls-27{fill:#564954;}.cls-28{font-size:59.83px;}.cls-28,.cls-30{font-family:Rubik-Regular, Rubik;}.cls-29{fill:#6d3207;}.cls-30{font-size:67.22px;}.cls-31{fill:#b3e8f4;}.cls-32{fill:#77bdc9;}.cls-33{fill:#4d8e93;}.cls-34{fill:#ffcda8;}.cls-35{fill:#ffdcc5;}.cls-36{fill:#f7f7f7;}.cls-37{fill:#6d443a;}.cls-38{fill:#514745;}.cls-39,.cls-40,.cls-41,.cls-42,.cls-43,.cls-44,.cls-45,.cls-46{stroke-width:0.5px;}.cls-39{stroke:url(#linear-gradient);}.cls-40,.cls-44{stroke-dasharray:1.01 2.01;}.cls-40{stroke:url(#linear-gradient-2);}.cls-41{stroke:url(#linear-gradient-3);}.cls-42,.cls-46{stroke-dasharray:0.99 1.99;}.cls-42{stroke:url(#linear-gradient-4);}.cls-43{stroke:url(#linear-gradient-5);}.cls-44{stroke:url(#linear-gradient-6);}.cls-45{stroke:url(#linear-gradient-7);}.cls-46{stroke:url(#linear-gradient-8);}.cls-47{fill:url(#linear-gradient-9);}.cls-48{fill:url(#linear-gradient-10);}.cls-49{fill:url(#linear-gradient-11);}.cls-50{fill:url(#linear-gradient-12);}</style><linearGradient id="linear-gradient" x1="512.43" y1="573.2" x2="697.75" y2="573.2" gradientUnits="userSpaceOnUse"><stop offset="0" stop-color="#11d6cc"/><stop offset="1" stop-color="#00a9ce"/></linearGradient><linearGradient id="linear-gradient-2" x1="512.43" y1="516.13" x2="697.75" y2="516.13" xlink:href="#linear-gradient"/><linearGradient id="linear-gradient-3" x1="512.43" y1="459.22" x2="697.75" y2="459.22" xlink:href="#linear-gradient"/><linearGradient id="linear-gradient-4" x1="512.43" y1="351.47" x2="697.75" y2="351.47" xlink:href="#linear-gradient"/><linearGradient id="linear-gradient-5" x1="512.43" y1="244.85" x2="697.75" y2="244.85" xlink:href="#linear-gradient"/><linearGradient id="linear-gradient-6" x1="512.43" y1="301.92" x2="697.75" y2="301.92" xlink:href="#linear-gradient"/><linearGradient id="linear-gradient-7" x1="512.43" y1="358.84" x2="697.75" y2="358.84" xlink:href="#linear-gradient"/><linearGradient id="linear-gradient-8" x1="512.43" y1="466.58" x2="697.75" y2="466.58" xlink:href="#linear-gradient"/><linearGradient id="linear-gradient-9" x1="506.92" y1="242.79" x2="519.31" y2="242.79" xlink:href="#linear-gradient"/><linearGradient id="linear-gradient-10" x1="691.3" y1="359" x2="703.69" y2="359" xlink:href="#linear-gradient"/><linearGradient id="linear-gradient-11" x1="691.3" y1="573.97" x2="703.69" y2="573.97" xlink:href="#linear-gradient"/><linearGradient id="linear-gradient-12" x1="679.59" y1="485.79" x2="691.98" y2="485.79" xlink:href="#linear-gradient"/></defs><g class="cls-1"><g id="Layer_1" data-name="Layer 1"><path class="cls-2" d="M1043.85,484.12v83.77a9,9,0,0,1-13.8,7.7l-109.5-67.53" transform="translate(-172.79 -25.21)"/><path class="cls-2" d="M1114.32,279.32v83.77a9,9,0,0,1-13.79,7.7L932.75,267.42a11.54,11.54,0,0,0-17.59,9.83v84" transform="translate(-172.79 -25.21)"/><path class="cls-2" d="M1250.26,547.56V788.08a9,9,0,0,1-13.79,7.7l-301-184.7" transform="translate(-172.79 -25.21)"/><line class="cls-2" x1="643.13" y1="130.21" x2="643.13" y2="291.36"/><path class="cls-2" d="M463.74,322.36v82.23A27.37,27.37,0,0,0,476.87,428l118.91,72.39" transform="translate(-172.79 -25.21)"/><path class="cls-2" d="M503.37,96.2v82.24a27.35,27.35,0,0,0,13.13,23.37L635.4,274.2" transform="translate(-172.79 -25.21)"/><path class="cls-3" d="M362,161.51V270.28a8.91,8.91,0,0,0,3.84,7.36c.11.05.21.16.32.22l35.56,21.91L475.18,345A3.44,3.44,0,0,0,479,345a3.57,3.57,0,0,0,1.62-3V236a11.24,11.24,0,0,0-5.25-9.47L366.14,159.19a2.61,2.61,0,0,0-2.44-.22,1.94,1.94,0,0,0-.48.27A2.73,2.73,0,0,0,362,161.51Z" transform="translate(-172.79 -25.21)"/><path class="cls-3" d="M708.41,36.14v88.5a7.25,7.25,0,0,0,3.13,6,2.4,2.4,0,0,1,.26.18l28.93,17.83,59.75,36.81a2.78,2.78,0,0,0,3.13,0,2.88,2.88,0,0,0,1.32-2.42V96.73A9.16,9.16,0,0,0,800.66,89l-88.9-54.77a2.14,2.14,0,0,0-2-.18,2,2,0,0,0-.4.22A2.25,2.25,0,0,0,708.41,36.14Z" transform="translate(-172.79 -25.21)"/><path class="cls-3" d="M1027.35,246v64.63a5.3,5.3,0,0,0,2.28,4.38,2.14,2.14,0,0,1,.19.13l21.13,13L1094.59,355a2,2,0,0,0,2.28,0,2.11,2.11,0,0,0,1-1.77v-63a6.67,6.67,0,0,0-3.12-5.63l-64.93-40a1.57,1.57,0,0,0-1.45-.13,1.81,1.81,0,0,0-.29.17A1.6,1.6,0,0,0,1027.35,246Z" transform="translate(-172.79 -25.21)"/><path class="cls-3" d="M1044.73,406.43v89a7.3,7.3,0,0,0,3.14,6c.09,0,.18.13.27.17l29.08,17.93,60.07,37a2.8,2.8,0,0,0,3.14,0,2.92,2.92,0,0,0,1.33-2.43V467.33a9.18,9.18,0,0,0-4.3-7.74l-89.37-55.07a2.16,2.16,0,0,0-2-.18,2.39,2.39,0,0,0-.4.23A2.24,2.24,0,0,0,1044.73,406.43Z" transform="translate(-172.79 -25.21)"/><path class="cls-3" d="M1120,589.85v61.22a5,5,0,0,0,2.16,4.14l.18.12,20,12.34,41.33,25.46a2,2,0,0,0,2.16,0,2,2,0,0,0,.92-1.68V631.76a6.31,6.31,0,0,0-3-5.33l-61.49-37.89a1.44,1.44,0,0,0-1.37-.12,1.22,1.22,0,0,0-.27.15A1.53,1.53,0,0,0,1120,589.85Z" transform="translate(-172.79 -25.21)"/><path class="cls-3" d="M1257.61,453.38v82.15a6.74,6.74,0,0,0,2.91,5.56c.08,0,.16.12.24.17l26.85,16.55L1343.08,592a2.59,2.59,0,0,0,2.9,0,2.71,2.71,0,0,0,1.23-2.25V509.62a8.49,8.49,0,0,0-4-7.15l-82.52-50.85a2,2,0,0,0-1.84-.16,1.94,1.94,0,0,0-.37.2A2.08,2.08,0,0,0,1257.61,453.38Z" transform="translate(-172.79 -25.21)"/><path class="cls-4" d="M404.93,709.75l-51.32-31.6a8.6,8.6,0,0,1,0-14.65L617.36,501.21a15.49,15.49,0,0,1,16.23,0l331.33,204a8.5,8.5,0,0,1,0,14.47L701.06,882.05a15.57,15.57,0,0,1-16.32,0l-55.39-34.1Z" transform="translate(-172.79 -25.21)"/><path class="cls-5" d="M607.07,164.39l10.56-6.72,0,0a7.39,7.39,0,0,1,8.14-.26L955.93,360.72A20.29,20.29,0,0,1,965.6,378V665.26A8,8,0,0,1,962,671.9l0,0-.63.4h0l-11.52,7.28s-1.65-9.75-1.26-9.94l.31-.14L621.15,467.68a14.19,14.19,0,0,1-6.75-12.08V166Z" transform="translate(-172.79 -25.21)"/><path class="cls-6" d="M942,679.32,609.88,474.84a14.21,14.21,0,0,1-6.75-12.08V171a7.49,7.49,0,0,1,11.41-6.37L944.66,367.87a20.31,20.31,0,0,1,9.67,17.3V672.41A8.11,8.11,0,0,1,942,679.32Z" transform="translate(-172.79 -25.21)"/><path class="cls-7" d="M934.84,662.42,616.9,466.65a13.59,13.59,0,0,1-6.46-11.57V192a7.17,7.17,0,0,1,10.93-6.1l316,194.61a19.45,19.45,0,0,1,9.25,16.56V655.81A7.76,7.76,0,0,1,934.84,662.42Z" transform="translate(-172.79 -25.21)"/><path class="cls-5" d="M349.64,646.65l-.05,0V631.26h18.79L595,492.06a15.48,15.48,0,0,1,16.22,0L922,683.42l24.61,3.51v15.81l-.07,0a8.39,8.39,0,0,1-4,7.77L701.06,858.88a15.57,15.57,0,0,1-16.32,0L353.61,655A8.48,8.48,0,0,1,349.64,646.65Z" transform="translate(-172.79 -25.21)"/><path class="cls-6" d="M684.74,842.48,353.61,638.59a8.6,8.6,0,0,1,0-14.65L595,475.67a15.46,15.46,0,0,1,16.22,0l331.33,204a8.49,8.49,0,0,1,0,14.46L701.06,842.49A15.57,15.57,0,0,1,684.74,842.48Z" transform="translate(-172.79 -25.21)"/><path class="cls-8" d="M747.89,771.05l-278-171.24a7.66,7.66,0,0,1,0-13l138.27-86.42a13.79,13.79,0,0,1,14.45,0L900.78,671.71a7.55,7.55,0,0,1,0,12.87L762.42,771.06A13.87,13.87,0,0,1,747.89,771.05Z" transform="translate(-172.79 -25.21)"/><path class="cls-9" d="M585.43,771.4,469.59,700.08a3,3,0,0,1,0-5.13l67.07-42a5.41,5.41,0,0,1,5.67,0l115.91,71.37a3,3,0,0,1,0,5.06l-67.11,42A5.44,5.44,0,0,1,585.43,771.4Z" transform="translate(-172.79 -25.21)"/><path class="cls-5" d="M875.92,662.74a1.64,1.64,0,0,1,1.71,0l14.45,8.88,1.62-.53v2h0a.87.87,0,0,1-.42.75l-16.39,10.24a1.62,1.62,0,0,1-1.72,0l-15.63-9.61a.87.87,0,0,1-.42-.75h0v-2Z" transform="translate(-172.79 -25.21)"/><path class="cls-5" d="M852.75,648.46a1.6,1.6,0,0,1,1.71,0l14.45,8.88,1.63-.53v2h0a.9.9,0,0,1-.43.75l-16.38,10.24a1.66,1.66,0,0,1-1.72,0l-15.63-9.61a.9.9,0,0,1-.43-.75h0v-2Z" transform="translate(-172.79 -25.21)"/><path class="cls-5" d="M829.59,634.17a1.64,1.64,0,0,1,1.71,0l14.45,8.88,1.62-.53v2h0a.9.9,0,0,1-.42.76l-16.39,10.24a1.64,1.64,0,0,1-1.72,0L813.22,646a.86.86,0,0,1-.43-.76h0v-2Z" transform="translate(-172.79 -25.21)"/><path class="cls-5" d="M806.42,619.89a1.66,1.66,0,0,1,1.72,0l14.44,8.88,1.63-.53v2h0a.9.9,0,0,1-.43.75L807.4,641.27a1.62,1.62,0,0,1-1.72,0l-15.63-9.6a.93.93,0,0,1-.43-.76h0v-2Z" transform="translate(-172.79 -25.21)"/><path class="cls-5" d="M783.26,605.61a1.6,1.6,0,0,1,1.71,0l14.45,8.88,1.63-.53v2h0a.87.87,0,0,1-.42.75L784.24,627a1.66,1.66,0,0,1-1.72,0l-15.63-9.61a.9.9,0,0,1-.43-.75h0v-2Z" transform="translate(-172.79 -25.21)"/><path class="cls-5" d="M760.1,591.32a1.64,1.64,0,0,1,1.71,0l14.45,8.88,1.62-.53v2.05h0a.88.88,0,0,1-.42.75l-16.39,10.24a1.66,1.66,0,0,1-1.72,0l-15.63-9.61a.87.87,0,0,1-.42-.75h0v-2Z" transform="translate(-172.79 -25.21)"/><path class="cls-5" d="M736.93,577a1.64,1.64,0,0,1,1.71,0l14.45,8.88,1.63-.53v2h0a.9.9,0,0,1-.43.75l-16.38,10.24a1.62,1.62,0,0,1-1.72,0l-15.63-9.6a.93.93,0,0,1-.43-.76h0v-2Z" transform="translate(-172.79 -25.21)"/><path class="cls-10" d="M736.19,596.4l-15.63-9.61a.9.9,0,0,1,0-1.54L736.93,575a1.62,1.62,0,0,1,1.71,0l15.65,9.61a.9.9,0,0,1,0,1.53L737.91,596.4A1.66,1.66,0,0,1,736.19,596.4Z" transform="translate(-172.79 -25.21)"/><path class="cls-5" d="M713.77,562.76a1.64,1.64,0,0,1,1.71,0l14.45,8.88,1.62-.53v2h0a.87.87,0,0,1-.42.75l-16.39,10.24a1.66,1.66,0,0,1-1.72,0l-15.62-9.61a.86.86,0,0,1-.43-.75h0v-2Z" transform="translate(-172.79 -25.21)"/><path class="cls-5" d="M690.6,548.47a1.62,1.62,0,0,1,1.71,0l14.45,8.88,1.63-.54v2h0a.9.9,0,0,1-.43.75l-16.38,10.24a1.66,1.66,0,0,1-1.72,0l-15.63-9.61a.9.9,0,0,1-.43-.75h0v-2Z" transform="translate(-172.79 -25.21)"/><path class="cls-5" d="M667.44,534.19a1.64,1.64,0,0,1,1.71,0l14.45,8.88,1.63-.53v2h0a.9.9,0,0,1-.42.76l-16.38,10.23a1.62,1.62,0,0,1-1.72,0L651.07,546a.93.93,0,0,1-.43-.76h0v-2Z" transform="translate(-172.79 -25.21)"/><path class="cls-5" d="M644.28,519.91a1.64,1.64,0,0,1,1.71,0l14.44,8.88,1.63-.53v2h0a.87.87,0,0,1-.42.75l-16.39,10.24a1.62,1.62,0,0,1-1.72,0l-15.63-9.61a.87.87,0,0,1-.42-.75h0v-2Z" transform="translate(-172.79 -25.21)"/><path class="cls-5" d="M621.11,505.63a1.6,1.6,0,0,1,1.71,0l14.45,8.88,1.63-.53v2h0a.9.9,0,0,1-.43.75L622.09,527a1.66,1.66,0,0,1-1.72,0l-15.63-9.61a.9.9,0,0,1-.43-.75h0v-2Z" transform="translate(-172.79 -25.21)"/><path class="cls-5" d="M850.1,679.05a1.62,1.62,0,0,1,1.71,0l14.45,8.88,1.62-.53v2h0a.87.87,0,0,1-.42.75l-16.39,10.24a1.66,1.66,0,0,1-1.72,0l-15.63-9.61a.87.87,0,0,1-.42-.75h0v-2Z" transform="translate(-172.79 -25.21)"/><path class="cls-5" d="M826.93,664.76a1.64,1.64,0,0,1,1.71,0l14.45,8.89,1.63-.54v2h0a.9.9,0,0,1-.43.75l-16.38,10.24a1.66,1.66,0,0,1-1.72,0l-15.63-9.61a.9.9,0,0,1-.43-.75h0v-2Z" transform="translate(-172.79 -25.21)"/><path class="cls-5" d="M803.77,650.48a1.64,1.64,0,0,1,1.71,0l14.45,8.88,1.63-.53v2h0a.87.87,0,0,1-.42.75l-16.38,10.24a1.62,1.62,0,0,1-1.72,0l-15.63-9.6a.91.91,0,0,1-.43-.76h0v-2Z" transform="translate(-172.79 -25.21)"/><path class="cls-5" d="M780.61,636.2a1.64,1.64,0,0,1,1.71,0l14.44,8.88,1.63-.53v2h0a.9.9,0,0,1-.43.75l-16.38,10.24a1.64,1.64,0,0,1-1.72,0L764.23,648a.87.87,0,0,1-.42-.75h0v-2Z" transform="translate(-172.79 -25.21)"/><path class="cls-5" d="M757.44,621.92a1.6,1.6,0,0,1,1.71,0l14.45,8.88,1.63-.53v2h0a.87.87,0,0,1-.42.75L758.42,643.3a1.66,1.66,0,0,1-1.72,0l-15.63-9.61a.9.9,0,0,1-.43-.75h0v-2Z" transform="translate(-172.79 -25.21)"/><path class="cls-5" d="M734.28,607.63a1.64,1.64,0,0,1,1.71,0l14.45,8.88,1.62-.53v2h0a.9.9,0,0,1-.42.76L735.25,629a1.64,1.64,0,0,1-1.72,0l-15.63-9.6a.87.87,0,0,1-.42-.76h0v-2Z" transform="translate(-172.79 -25.21)"/><path class="cls-5" d="M711.11,593.35a1.64,1.64,0,0,1,1.71,0l14.45,8.88,1.63-.53v2h0a.9.9,0,0,1-.43.75l-16.38,10.24a1.62,1.62,0,0,1-1.72,0l-15.63-9.6a.93.93,0,0,1-.43-.76h0v-2Z" transform="translate(-172.79 -25.21)"/><path class="cls-5" d="M688,579.07a1.6,1.6,0,0,1,1.71,0L704.11,588l1.62-.53v2h0a.87.87,0,0,1-.42.75l-16.39,10.24a1.64,1.64,0,0,1-1.71,0l-15.63-9.61a.88.88,0,0,1-.43-.75h0v-2Z" transform="translate(-172.79 -25.21)"/><path class="cls-5" d="M664.78,564.78a1.66,1.66,0,0,1,1.72,0l14.44,8.88,1.63-.53v2h0a.92.92,0,0,1-.43.75l-16.38,10.24a1.66,1.66,0,0,1-1.72,0l-15.63-9.61a.87.87,0,0,1-.42-.75h0v-2Z" transform="translate(-172.79 -25.21)"/><path class="cls-5" d="M641.62,550.5a1.64,1.64,0,0,1,1.71,0l14.45,8.88,1.63-.53v2h0a.87.87,0,0,1-.42.75L642.6,571.88a1.62,1.62,0,0,1-1.72,0l-15.63-9.6a.93.93,0,0,1-.43-.76h0v-2Z" transform="translate(-172.79 -25.21)"/><path class="cls-5" d="M618.46,536.22a1.64,1.64,0,0,1,1.71,0l14.45,8.88,1.62-.53v2h0a.87.87,0,0,1-.42.75L619.43,557.6a1.66,1.66,0,0,1-1.72,0L602.08,548a.87.87,0,0,1-.42-.75h0v-2Z" transform="translate(-172.79 -25.21)"/><path class="cls-5" d="M595.29,521.93a1.62,1.62,0,0,1,1.71,0l14.45,8.88,1.63-.54v2.05h0a.9.9,0,0,1-.43.75l-16.38,10.24a1.66,1.66,0,0,1-1.72,0l-15.63-9.61a.9.9,0,0,1-.43-.75h0v-2Z" transform="translate(-172.79 -25.21)"/><path class="cls-5" d="M824.28,695.36a1.6,1.6,0,0,1,1.71,0l14.45,8.88,1.62-.53v2h0a.87.87,0,0,1-.42.75l-16.39,10.24a1.66,1.66,0,0,1-1.72,0l-15.62-9.61a.86.86,0,0,1-.43-.75h0v-2Z" transform="translate(-172.79 -25.21)"/><path class="cls-5" d="M801.11,681.07a1.64,1.64,0,0,1,1.71,0L817.27,690l1.63-.53v2h0a.92.92,0,0,1-.43.75l-16.38,10.24a1.66,1.66,0,0,1-1.72,0l-15.63-9.61a.91.91,0,0,1-.43-.76h0v-2Z" transform="translate(-172.79 -25.21)"/><path class="cls-5" d="M778,666.79a1.64,1.64,0,0,1,1.71,0l14.45,8.88,1.63-.53v2h0a.87.87,0,0,1-.42.75l-16.38,10.24a1.62,1.62,0,0,1-1.72,0l-15.63-9.6a.93.93,0,0,1-.43-.76h0v-2Z" transform="translate(-172.79 -25.21)"/><path class="cls-5" d="M754.79,652.51a1.62,1.62,0,0,1,1.71,0L771,661.39l1.62-.53v2h0a.87.87,0,0,1-.42.75l-16.39,10.24a1.66,1.66,0,0,1-1.72,0l-15.63-9.61a.87.87,0,0,1-.42-.75h0v-2Z" transform="translate(-172.79 -25.21)"/><path class="cls-5" d="M731.62,638.22a1.64,1.64,0,0,1,1.71,0l14.45,8.89,1.63-.54v2h0a.87.87,0,0,1-.42.75L732.6,659.61a1.66,1.66,0,0,1-1.72,0L715.25,650a.9.9,0,0,1-.43-.75h0v-2Z" transform="translate(-172.79 -25.21)"/><path class="cls-5" d="M708.46,623.94a1.64,1.64,0,0,1,1.71,0l14.45,8.88,1.62-.53v2h0a.87.87,0,0,1-.42.75l-16.39,10.24a1.62,1.62,0,0,1-1.72,0l-15.62-9.6a.89.89,0,0,1-.43-.76h0v-2Z" transform="translate(-172.79 -25.21)"/><path class="cls-5" d="M685.29,609.66a1.64,1.64,0,0,1,1.71,0l14.45,8.88,1.63-.53v2h0a.9.9,0,0,1-.43.75L686.27,631a1.64,1.64,0,0,1-1.72,0l-15.63-9.61a.9.9,0,0,1-.43-.75h0v-2Z" transform="translate(-172.79 -25.21)"/><path class="cls-5" d="M662.13,595.38a1.6,1.6,0,0,1,1.71,0l14.45,8.88,1.63-.53v2h0a.87.87,0,0,1-.42.75l-16.38,10.24a1.66,1.66,0,0,1-1.72,0l-15.63-9.61a.9.9,0,0,1-.43-.75h0v-2Z" transform="translate(-172.79 -25.21)"/><path class="cls-5" d="M639,581.09a1.64,1.64,0,0,1,1.71,0L655.12,590l1.63-.53v2h0a.91.91,0,0,1-.43.76l-16.38,10.24a1.64,1.64,0,0,1-1.72,0l-15.63-9.6a.87.87,0,0,1-.42-.76h0v-2Z" transform="translate(-172.79 -25.21)"/><path class="cls-5" d="M615.8,566.81a1.64,1.64,0,0,1,1.71,0L632,575.69l1.63-.53v2h0a.87.87,0,0,1-.42.75l-16.38,10.24a1.62,1.62,0,0,1-1.72,0l-15.63-9.6a.93.93,0,0,1-.43-.76h0v-2Z" transform="translate(-172.79 -25.21)"/><path class="cls-5" d="M592.64,552.53a1.6,1.6,0,0,1,1.71,0l14.45,8.88,1.62-.53v2h0a.87.87,0,0,1-.42.75l-16.39,10.24a1.66,1.66,0,0,1-1.72,0l-15.63-9.61a.87.87,0,0,1-.42-.75h0v-2Z" transform="translate(-172.79 -25.21)"/><path class="cls-5" d="M569.47,538.24a1.64,1.64,0,0,1,1.71,0l14.45,8.88,1.63-.53v2h0a.92.92,0,0,1-.43.75l-16.38,10.24a1.66,1.66,0,0,1-1.72,0L553.1,550a.91.91,0,0,1-.43-.76h0v-2Z" transform="translate(-172.79 -25.21)"/><path class="cls-5" d="M798.46,711.66a1.62,1.62,0,0,1,1.71,0l14.45,8.88,1.62-.53v2h0a.87.87,0,0,1-.42.75l-16.38,10.24a1.68,1.68,0,0,1-1.73,0l-15.62-9.61a.86.86,0,0,1-.43-.75h0v-2Z" transform="translate(-172.79 -25.21)"/><path class="cls-5" d="M775.29,697.38a1.66,1.66,0,0,1,1.72,0l14.44,8.88,1.63-.53v2h0a.93.93,0,0,1-.43.76l-16.38,10.24a1.64,1.64,0,0,1-1.72,0l-15.63-9.6a.89.89,0,0,1-.42-.76h0v-2Z" transform="translate(-172.79 -25.21)"/><path class="cls-5" d="M752.13,683.1a1.64,1.64,0,0,1,1.71,0L768.29,692l1.63-.53v2h0a.87.87,0,0,1-.42.75l-16.38,10.24a1.62,1.62,0,0,1-1.72,0l-15.63-9.6a.93.93,0,0,1-.43-.76h0v-2Z" transform="translate(-172.79 -25.21)"/><path class="cls-5" d="M729,668.82a1.6,1.6,0,0,1,1.71,0l14.45,8.88,1.62-.53v2h0a.87.87,0,0,1-.42.75L729.94,690.2a1.66,1.66,0,0,1-1.72,0l-15.63-9.61a.87.87,0,0,1-.42-.75h0v-2Z" transform="translate(-172.79 -25.21)"/><path class="cls-5" d="M705.8,654.53a1.64,1.64,0,0,1,1.71,0L722,663.41l1.63-.53v2h0a.92.92,0,0,1-.43.75l-16.38,10.24a1.66,1.66,0,0,1-1.72,0l-15.63-9.61a.91.91,0,0,1-.43-.76h0v-2Z" transform="translate(-172.79 -25.21)"/><path class="cls-5" d="M682.64,640.25a1.64,1.64,0,0,1,1.71,0l14.45,8.88,1.62-.53v2h0a.87.87,0,0,1-.42.75l-16.39,10.24a1.62,1.62,0,0,1-1.72,0L666.27,652a.89.89,0,0,1-.43-.76h0v-2Z" transform="translate(-172.79 -25.21)"/><path class="cls-5" d="M659.47,626a1.6,1.6,0,0,1,1.71,0l14.45,8.88,1.63-.53v2h0a.9.9,0,0,1-.43.75l-16.38,10.24a1.66,1.66,0,0,1-1.72,0l-15.63-9.61a.9.9,0,0,1-.43-.75h0v-2Z" transform="translate(-172.79 -25.21)"/><path class="cls-5" d="M636.31,611.68a1.64,1.64,0,0,1,1.71,0l14.45,8.88,1.63-.53v2.05h0a.87.87,0,0,1-.42.75l-16.38,10.24a1.66,1.66,0,0,1-1.72,0l-15.63-9.61a.9.9,0,0,1-.43-.75h0v-2Z" transform="translate(-172.79 -25.21)"/><path class="cls-5" d="M613.15,597.4a1.64,1.64,0,0,1,1.71,0l14.45,8.88,1.62-.53v2h0a.87.87,0,0,1-.42.75l-16.39,10.24a1.62,1.62,0,0,1-1.72,0l-15.63-9.6a.9.9,0,0,1-.42-.76h0v-2Z" transform="translate(-172.79 -25.21)"/><path class="cls-5" d="M590,583.12a1.64,1.64,0,0,1,1.71,0L606.14,592l1.63-.53v2h0a.9.9,0,0,1-.43.75L591,604.5a1.62,1.62,0,0,1-1.72,0l-15.63-9.61a.9.9,0,0,1-.43-.75h0v-2Z" transform="translate(-172.79 -25.21)"/><path class="cls-5" d="M566.82,568.84a1.6,1.6,0,0,1,1.71,0L583,577.72l1.62-.53v2h0a.87.87,0,0,1-.42.75l-16.39,10.24a1.66,1.66,0,0,1-1.72,0l-15.62-9.61a.86.86,0,0,1-.43-.75h0v-2Z" transform="translate(-172.79 -25.21)"/><path class="cls-5" d="M543.65,554.55a1.64,1.64,0,0,1,1.71,0l14.45,8.88,1.63-.53v2h0a.93.93,0,0,1-.43.76l-16.38,10.24a1.64,1.64,0,0,1-1.72,0l-15.63-9.6a.91.91,0,0,1-.43-.76h0v-2Z" transform="translate(-172.79 -25.21)"/><path class="cls-5" d="M772.64,728a1.64,1.64,0,0,1,1.71,0l14.45,8.88,1.63-.53v2h0a.88.88,0,0,1-.42.75l-16.38,10.24a1.66,1.66,0,0,1-1.72,0l-15.63-9.61a.9.9,0,0,1-.43-.75h0v-2Z" transform="translate(-172.79 -25.21)"/><path class="cls-5" d="M749.48,713.69a1.64,1.64,0,0,1,1.71,0l14.44,8.88,1.63-.53v2h0a.86.86,0,0,1-.43.75l-16.38,10.24a1.62,1.62,0,0,1-1.72,0l-15.63-9.6a.9.9,0,0,1-.42-.76h0v-2Z" transform="translate(-172.79 -25.21)"/><path class="cls-5" d="M726.31,699.41a1.64,1.64,0,0,1,1.71,0l14.45,8.88,1.63-.53v2h0a.87.87,0,0,1-.42.75l-16.38,10.24a1.64,1.64,0,0,1-1.72,0l-15.63-9.61a.9.9,0,0,1-.43-.75h0v-2Z" transform="translate(-172.79 -25.21)"/><path class="cls-5" d="M703.15,685.12a1.62,1.62,0,0,1,1.71,0L719.31,694l1.62-.53v2h0a.87.87,0,0,1-.42.75l-16.39,10.24a1.66,1.66,0,0,1-1.72,0l-15.63-9.61a.87.87,0,0,1-.42-.75h0v-2Z" transform="translate(-172.79 -25.21)"/><path class="cls-5" d="M680,670.84a1.64,1.64,0,0,1,1.71,0l14.45,8.88,1.63-.53v2h0a.93.93,0,0,1-.43.76L681,692.23a1.64,1.64,0,0,1-1.72,0l-15.63-9.6a.92.92,0,0,1-.43-.76h0v-2Z" transform="translate(-172.79 -25.21)"/><path class="cls-5" d="M656.82,656.56a1.64,1.64,0,0,1,1.71,0L673,665.44l1.62-.53v2h0a.87.87,0,0,1-.42.75L657.8,677.94a1.62,1.62,0,0,1-1.72,0l-15.63-9.6a.93.93,0,0,1-.43-.76h0v-2Z" transform="translate(-172.79 -25.21)"/><path class="cls-5" d="M633.66,642.28a1.6,1.6,0,0,1,1.71,0l14.44,8.88,1.63-.53v2h0a.9.9,0,0,1-.43.75l-16.38,10.24a1.66,1.66,0,0,1-1.72,0l-15.63-9.61a.87.87,0,0,1-.42-.75h0v-2Z" transform="translate(-172.79 -25.21)"/><path class="cls-5" d="M610.49,628a1.64,1.64,0,0,1,1.71,0l14.45,8.88,1.63-.53v2h0a.88.88,0,0,1-.42.75l-16.38,10.24a1.66,1.66,0,0,1-1.72,0l-15.63-9.61a.91.91,0,0,1-.43-.76h0v-2Z" transform="translate(-172.79 -25.21)"/><path class="cls-5" d="M587.33,613.71a1.64,1.64,0,0,1,1.71,0l14.45,8.88,1.62-.53v2h0a.87.87,0,0,1-.42.75L588.3,635.09a1.62,1.62,0,0,1-1.72,0L571,625.49a.9.9,0,0,1-.42-.76h0v-2Z" transform="translate(-172.79 -25.21)"/><path class="cls-5" d="M564.16,599.43a1.6,1.6,0,0,1,1.71,0l14.45,8.88,1.63-.53v2h0a.9.9,0,0,1-.43.75l-16.38,10.24a1.66,1.66,0,0,1-1.72,0l-15.63-9.61a.9.9,0,0,1-.43-.75h0v-2Z" transform="translate(-172.79 -25.21)"/><path class="cls-5" d="M541,585.14a1.64,1.64,0,0,1,1.71,0L557.16,594l1.62-.53v2h0a.87.87,0,0,1-.42.75L542,606.53a1.68,1.68,0,0,1-1.73,0l-15.62-9.61a.86.86,0,0,1-.43-.75h0v-2Z" transform="translate(-172.79 -25.21)"/><path class="cls-5" d="M517.83,570.86a1.66,1.66,0,0,1,1.72,0L534,579.74l1.63-.53v2h0a.9.9,0,0,1-.43.75l-16.38,10.24a1.62,1.62,0,0,1-1.72,0l-15.63-9.6a.9.9,0,0,1-.42-.76h0v-2Z" transform="translate(-172.79 -25.21)"/><path class="cls-5" d="M746.82,744.28a1.64,1.64,0,0,1,1.71,0L763,753.16l1.63-.53v2h0a.88.88,0,0,1-.42.75L747.8,765.67a1.64,1.64,0,0,1-1.72,0l-15.63-9.6a.91.91,0,0,1-.43-.76h0v-2Z" transform="translate(-172.79 -25.21)"/><path class="cls-5" d="M723.66,730a1.64,1.64,0,0,1,1.71,0l14.45,8.88,1.62-.53v2h0a.87.87,0,0,1-.42.75l-16.39,10.24a1.62,1.62,0,0,1-1.72,0l-15.63-9.6a.9.9,0,0,1-.42-.76h0v-2Z" transform="translate(-172.79 -25.21)"/><path class="cls-5" d="M700.49,715.72a1.6,1.6,0,0,1,1.71,0l14.45,8.88,1.63-.53v2h0a.9.9,0,0,1-.43.75L701.47,737.1a1.66,1.66,0,0,1-1.72,0l-15.63-9.61a.9.9,0,0,1-.43-.75h0v-2Z" transform="translate(-172.79 -25.21)"/><path class="cls-5" d="M584.67,644.3a1.64,1.64,0,0,1,1.71,0l14.45,8.88,1.63-.53v2h0a.9.9,0,0,1-.42.76l-16.38,10.23a1.62,1.62,0,0,1-1.72,0l-15.63-9.6a.92.92,0,0,1-.43-.76h0v-2Z" transform="translate(-172.79 -25.21)"/><path class="cls-5" d="M561.51,630a1.64,1.64,0,0,1,1.71,0l14.45,8.88,1.62-.53v2h0a.87.87,0,0,1-.42.75L562.48,651.4a1.62,1.62,0,0,1-1.72,0l-15.63-9.6a.9.9,0,0,1-.42-.76h0v-2Z" transform="translate(-172.79 -25.21)"/><path class="cls-5" d="M538.34,615.74a1.6,1.6,0,0,1,1.71,0l14.45,8.88,1.63-.53v2h0a.9.9,0,0,1-.43.75l-16.38,10.24a1.66,1.66,0,0,1-1.72,0L522,627.51a.9.9,0,0,1-.43-.75h0v-2Z" transform="translate(-172.79 -25.21)"/><path class="cls-5" d="M515.18,601.45a1.64,1.64,0,0,1,1.71,0l14.45,8.88,1.63-.53v2h0a.88.88,0,0,1-.42.75l-6.66,4.16a1.66,1.66,0,0,1-1.72,0l-15.63-9.61a.9.9,0,0,1-.43-.75h0v-2Z" transform="translate(-172.79 -25.21)"/><path class="cls-5" d="M505.44,607.54a1.64,1.64,0,0,1,1.71,0l14.45,8.88,1.63-.53v2h0a.87.87,0,0,1-.42.75l-6.66,4.16a1.62,1.62,0,0,1-1.72,0l-15.63-9.6a.93.93,0,0,1-.43-.76h0v-2Z" transform="translate(-172.79 -25.21)"/><path class="cls-5" d="M492,587.17a1.64,1.64,0,0,1,1.71,0l14.44,8.88,1.63-.53v2h0a.86.86,0,0,1-.43.75L493,608.55a1.62,1.62,0,0,1-1.72,0L475.64,599a.9.9,0,0,1-.42-.76h0v-2Z" transform="translate(-172.79 -25.21)"/><path class="cls-5" d="M607.84,658.58a1.62,1.62,0,0,1,1.71,0L624,667.47l1.62-.53v2h0a.89.89,0,0,1-.42.75l-7.94,5L666.89,707l10.44-5.6a1.64,1.64,0,0,1,1.71,0l14.45,8.89,1.62-.54v2.05h0a.87.87,0,0,1-.42.75L678.3,722.82a1.66,1.66,0,0,1-1.72,0L661,713.21l0,0L599,675h0l-7.54-4.63a.87.87,0,0,1-.42-.75h0v-2Z" transform="translate(-172.79 -25.21)"/><path class="cls-10" d="M875.17,682.09l-15.63-9.6a.91.91,0,0,1,0-1.54l16.38-10.24a1.64,1.64,0,0,1,1.71,0l15.65,9.62a.91.91,0,0,1,0,1.53L876.89,682.1A1.64,1.64,0,0,1,875.17,682.09Z" transform="translate(-172.79 -25.21)"/><path class="cls-10" d="M852,667.81l-15.63-9.6a.91.91,0,0,1,0-1.55l16.37-10.23a1.64,1.64,0,0,1,1.71,0l15.65,9.62a.89.89,0,0,1,0,1.52l-16.38,10.24A1.62,1.62,0,0,1,852,667.81Z" transform="translate(-172.79 -25.21)"/><path class="cls-10" d="M828.84,653.53l-15.62-9.61a.9.9,0,0,1,0-1.54l16.37-10.23a1.6,1.6,0,0,1,1.71,0L847,641.77a.89.89,0,0,1,0,1.52l-16.39,10.24A1.66,1.66,0,0,1,828.84,653.53Z" transform="translate(-172.79 -25.21)"/><path class="cls-10" d="M805.68,639.25l-15.63-9.61a.91.91,0,0,1,0-1.54l16.37-10.24a1.66,1.66,0,0,1,1.72,0l15.64,9.62a.9.9,0,0,1,0,1.53L807.4,639.25A1.66,1.66,0,0,1,805.68,639.25Z" transform="translate(-172.79 -25.21)"/><path class="cls-10" d="M782.52,625l-15.63-9.6a.91.91,0,0,1,0-1.55l16.37-10.23a1.64,1.64,0,0,1,1.71,0l15.65,9.62a.89.89,0,0,1,0,1.52L784.24,625A1.62,1.62,0,0,1,782.52,625Z" transform="translate(-172.79 -25.21)"/><path class="cls-10" d="M759.35,610.68l-15.63-9.61a.91.91,0,0,1,0-1.54L760.1,589.3a1.64,1.64,0,0,1,1.71,0l15.65,9.62a.9.9,0,0,1,0,1.52l-16.39,10.24A1.66,1.66,0,0,1,759.35,610.68Z" transform="translate(-172.79 -25.21)"/><path class="cls-10" d="M713,582.11l-15.62-9.6a.91.91,0,0,1,0-1.55l16.37-10.23a1.64,1.64,0,0,1,1.71,0l15.65,9.62a.89.89,0,0,1,0,1.52l-16.39,10.24A1.62,1.62,0,0,1,713,582.11Z" transform="translate(-172.79 -25.21)"/><path class="cls-10" d="M689.86,567.83l-15.63-9.6a.92.92,0,0,1,0-1.55l16.37-10.23a1.64,1.64,0,0,1,1.71,0L708,556.07a.89.89,0,0,1,0,1.52l-16.38,10.24A1.62,1.62,0,0,1,689.86,567.83Z" transform="translate(-172.79 -25.21)"/><path class="cls-10" d="M666.7,553.55l-15.63-9.61a.9.9,0,0,1,0-1.54l16.37-10.23a1.6,1.6,0,0,1,1.71,0l15.65,9.61a.9.9,0,0,1,0,1.53l-16.38,10.24A1.66,1.66,0,0,1,666.7,553.55Z" transform="translate(-172.79 -25.21)"/><path class="cls-10" d="M643.53,539.26l-15.63-9.6a.91.91,0,0,1,0-1.54l16.38-10.24a1.64,1.64,0,0,1,1.71,0l15.65,9.62a.91.91,0,0,1,0,1.53l-16.39,10.24A1.64,1.64,0,0,1,643.53,539.26Z" transform="translate(-172.79 -25.21)"/><path class="cls-10" d="M620.37,525l-15.63-9.6a.91.91,0,0,1,0-1.55l16.37-10.23a1.64,1.64,0,0,1,1.71,0l15.65,9.62a.89.89,0,0,1,0,1.52L622.09,525A1.62,1.62,0,0,1,620.37,525Z" transform="translate(-172.79 -25.21)"/><path class="cls-10" d="M849.35,698.4l-15.63-9.6a.91.91,0,0,1,0-1.55L850.1,677a1.64,1.64,0,0,1,1.71,0l15.65,9.62a.89.89,0,0,1,0,1.52L851.07,698.4A1.62,1.62,0,0,1,849.35,698.4Z" transform="translate(-172.79 -25.21)"/><path class="cls-10" d="M826.19,684.12l-15.63-9.61a.91.91,0,0,1,0-1.54l16.37-10.23a1.64,1.64,0,0,1,1.71,0l15.65,9.62a.89.89,0,0,1,0,1.52l-16.38,10.24A1.62,1.62,0,0,1,826.19,684.12Z" transform="translate(-172.79 -25.21)"/><path class="cls-10" d="M803,669.84l-15.63-9.61a.9.9,0,0,1,0-1.54l16.37-10.23a1.6,1.6,0,0,1,1.71,0l15.65,9.61a.9.9,0,0,1,0,1.53l-16.38,10.24A1.66,1.66,0,0,1,803,669.84Z" transform="translate(-172.79 -25.21)"/><path class="cls-10" d="M779.86,655.55,764.23,646a.91.91,0,0,1,0-1.54l16.38-10.24a1.64,1.64,0,0,1,1.71,0L798,643.79a.9.9,0,0,1,0,1.53l-16.38,10.24A1.64,1.64,0,0,1,779.86,655.55Z" transform="translate(-172.79 -25.21)"/><path class="cls-10" d="M756.7,641.27l-15.63-9.6a.91.91,0,0,1,0-1.55l16.37-10.23a1.64,1.64,0,0,1,1.71,0l15.65,9.62a.89.89,0,0,1,0,1.52l-16.38,10.24A1.62,1.62,0,0,1,756.7,641.27Z" transform="translate(-172.79 -25.21)"/><path class="cls-10" d="M733.53,627l-15.63-9.61a.9.9,0,0,1,0-1.54l16.37-10.23a1.6,1.6,0,0,1,1.71,0l15.65,9.62a.89.89,0,0,1,0,1.52L735.25,627A1.66,1.66,0,0,1,733.53,627Z" transform="translate(-172.79 -25.21)"/><path class="cls-10" d="M710.37,612.71l-15.63-9.61a.91.91,0,0,1,0-1.54l16.37-10.24a1.64,1.64,0,0,1,1.71,0l15.65,9.62a.9.9,0,0,1,0,1.53l-16.38,10.24A1.66,1.66,0,0,1,710.37,612.71Z" transform="translate(-172.79 -25.21)"/><path class="cls-10" d="M687.21,598.42l-15.63-9.6a.91.91,0,0,1,0-1.55L688,577a1.64,1.64,0,0,1,1.71,0l15.65,9.62a.89.89,0,0,1,0,1.52l-16.39,10.24A1.6,1.6,0,0,1,687.21,598.42Z" transform="translate(-172.79 -25.21)"/><path class="cls-10" d="M664,584.14l-15.63-9.61a.91.91,0,0,1,0-1.54l16.37-10.23a1.66,1.66,0,0,1,1.72,0l15.65,9.62a.89.89,0,0,1,0,1.52l-16.38,10.24A1.66,1.66,0,0,1,664,584.14Z" transform="translate(-172.79 -25.21)"/><path class="cls-10" d="M640.88,569.86l-15.63-9.61a.9.9,0,0,1,0-1.54l16.37-10.24a1.62,1.62,0,0,1,1.71,0L659,558.09a.9.9,0,0,1,0,1.53L642.6,569.86A1.66,1.66,0,0,1,640.88,569.86Z" transform="translate(-172.79 -25.21)"/><path class="cls-10" d="M617.71,555.57,602.08,546a.92.92,0,0,1,0-1.55l16.38-10.23a1.64,1.64,0,0,1,1.71,0l15.65,9.62a.91.91,0,0,1,0,1.53l-16.39,10.23A1.62,1.62,0,0,1,617.71,555.57Z" transform="translate(-172.79 -25.21)"/><path class="cls-10" d="M594.55,541.29l-15.63-9.61a.9.9,0,0,1,0-1.54l16.37-10.23a1.64,1.64,0,0,1,1.71,0l15.65,9.62a.89.89,0,0,1,0,1.52l-16.38,10.24A1.62,1.62,0,0,1,594.55,541.29Z" transform="translate(-172.79 -25.21)"/><path class="cls-10" d="M823.53,714.71l-15.62-9.6a.91.91,0,0,1,0-1.55l16.37-10.23a1.64,1.64,0,0,1,1.71,0L841.64,703a.89.89,0,0,1,0,1.52l-16.39,10.24A1.62,1.62,0,0,1,823.53,714.71Z" transform="translate(-172.79 -25.21)"/><path class="cls-10" d="M800.37,700.43l-15.63-9.61a.91.91,0,0,1,0-1.54l16.37-10.23a1.62,1.62,0,0,1,1.71,0l15.65,9.62a.89.89,0,0,1,0,1.52l-16.38,10.24A1.66,1.66,0,0,1,800.37,700.43Z" transform="translate(-172.79 -25.21)"/><path class="cls-10" d="M777.21,686.15l-15.63-9.61a.9.9,0,0,1,0-1.54L778,664.76a1.64,1.64,0,0,1,1.71,0l15.65,9.62a.9.9,0,0,1,0,1.53l-16.38,10.24A1.66,1.66,0,0,1,777.21,686.15Z" transform="translate(-172.79 -25.21)"/><path class="cls-10" d="M754,671.86l-15.63-9.6a.92.92,0,0,1,0-1.55l16.38-10.23a1.64,1.64,0,0,1,1.71,0l15.65,9.62a.9.9,0,0,1,0,1.52l-16.39,10.24A1.62,1.62,0,0,1,754,671.86Z" transform="translate(-172.79 -25.21)"/><path class="cls-10" d="M730.88,657.58,715.25,648a.9.9,0,0,1,0-1.54l16.37-10.23a1.64,1.64,0,0,1,1.71,0L749,645.82a.89.89,0,0,1,0,1.52L732.6,657.58A1.62,1.62,0,0,1,730.88,657.58Z" transform="translate(-172.79 -25.21)"/><path class="cls-10" d="M707.71,643.3l-15.62-9.61a.9.9,0,0,1,0-1.54l16.37-10.23a1.6,1.6,0,0,1,1.71,0l15.65,9.61a.9.9,0,0,1,0,1.53L709.43,643.3A1.66,1.66,0,0,1,707.71,643.3Z" transform="translate(-172.79 -25.21)"/><path class="cls-10" d="M684.55,629l-15.63-9.6a.92.92,0,0,1,0-1.55l16.37-10.23a1.64,1.64,0,0,1,1.71,0l15.65,9.62a.9.9,0,0,1,0,1.53L686.27,629A1.64,1.64,0,0,1,684.55,629Z" transform="translate(-172.79 -25.21)"/><path class="cls-10" d="M661.39,614.73l-15.63-9.6a.91.91,0,0,1,0-1.55l16.37-10.23a1.64,1.64,0,0,1,1.71,0L679.49,603a.89.89,0,0,1,0,1.52l-16.38,10.24A1.62,1.62,0,0,1,661.39,614.73Z" transform="translate(-172.79 -25.21)"/><path class="cls-10" d="M638.22,600.45l-15.63-9.61a.91.91,0,0,1,0-1.54L639,579.07a1.6,1.6,0,0,1,1.71,0l15.65,9.62a.89.89,0,0,1,0,1.52l-16.38,10.24A1.66,1.66,0,0,1,638.22,600.45Z" transform="translate(-172.79 -25.21)"/><path class="cls-10" d="M615.06,586.17l-15.63-9.61a.9.9,0,0,1,0-1.54l16.37-10.24a1.64,1.64,0,0,1,1.71,0l15.65,9.62a.9.9,0,0,1,0,1.53l-16.38,10.24A1.66,1.66,0,0,1,615.06,586.17Z" transform="translate(-172.79 -25.21)"/><path class="cls-10" d="M591.89,571.88l-15.63-9.6a.91.91,0,0,1,0-1.55l16.37-10.23a1.64,1.64,0,0,1,1.71,0L610,560.12a.89.89,0,0,1,0,1.52l-16.39,10.24A1.62,1.62,0,0,1,591.89,571.88Z" transform="translate(-172.79 -25.21)"/><path class="cls-10" d="M568.73,557.6,553.1,548a.91.91,0,0,1,0-1.54l16.37-10.23a1.64,1.64,0,0,1,1.71,0l15.65,9.62a.89.89,0,0,1,0,1.52L570.45,557.6A1.66,1.66,0,0,1,568.73,557.6Z" transform="translate(-172.79 -25.21)"/><path class="cls-10" d="M797.71,731l-15.62-9.6a.91.91,0,0,1,0-1.55l16.37-10.23a1.64,1.64,0,0,1,1.71,0l15.65,9.62a.89.89,0,0,1,0,1.52L799.44,731A1.64,1.64,0,0,1,797.71,731Z" transform="translate(-172.79 -25.21)"/><path class="cls-10" d="M774.55,716.74l-15.63-9.61a.91.91,0,0,1,0-1.54l16.37-10.23a1.62,1.62,0,0,1,1.72,0L792.65,705a.89.89,0,0,1,0,1.52l-16.38,10.24A1.66,1.66,0,0,1,774.55,716.74Z" transform="translate(-172.79 -25.21)"/><path class="cls-10" d="M751.39,702.46l-15.63-9.61a.9.9,0,0,1,0-1.54l16.37-10.24a1.64,1.64,0,0,1,1.71,0l15.65,9.62a.9.9,0,0,1,0,1.53l-16.38,10.24A1.66,1.66,0,0,1,751.39,702.46Z" transform="translate(-172.79 -25.21)"/><path class="cls-10" d="M728.22,688.17l-15.63-9.6a.92.92,0,0,1,0-1.55L729,666.79a1.64,1.64,0,0,1,1.71,0l15.65,9.62a.9.9,0,0,1,0,1.52l-16.39,10.24A1.62,1.62,0,0,1,728.22,688.17Z" transform="translate(-172.79 -25.21)"/><path class="cls-10" d="M705.06,673.89l-15.63-9.61a.9.9,0,0,1,0-1.54l16.37-10.23a1.62,1.62,0,0,1,1.71,0l15.65,9.62a.89.89,0,0,1,0,1.52l-16.38,10.24A1.66,1.66,0,0,1,705.06,673.89Z" transform="translate(-172.79 -25.21)"/><path class="cls-10" d="M681.89,659.61,666.27,650a.9.9,0,0,1,0-1.54l16.37-10.24a1.64,1.64,0,0,1,1.71,0L700,647.84a.9.9,0,0,1,0,1.53l-16.39,10.24A1.66,1.66,0,0,1,681.89,659.61Z" transform="translate(-172.79 -25.21)"/><path class="cls-10" d="M658.73,645.32l-15.63-9.6a.92.92,0,0,1,0-1.55l16.37-10.23a1.64,1.64,0,0,1,1.71,0l15.65,9.62a.89.89,0,0,1,0,1.52l-16.38,10.24A1.62,1.62,0,0,1,658.73,645.32Z" transform="translate(-172.79 -25.21)"/><path class="cls-10" d="M635.57,631l-15.63-9.61a.9.9,0,0,1,0-1.54l16.37-10.23a1.64,1.64,0,0,1,1.71,0l15.65,9.62a.89.89,0,0,1,0,1.52L637.29,631A1.64,1.64,0,0,1,635.57,631Z" transform="translate(-172.79 -25.21)"/><path class="cls-10" d="M612.4,616.76l-15.63-9.61a.91.91,0,0,1,0-1.54l16.38-10.23a1.6,1.6,0,0,1,1.71,0L630.51,605a.91.91,0,0,1,0,1.53l-16.39,10.24A1.66,1.66,0,0,1,612.4,616.76Z" transform="translate(-172.79 -25.21)"/><path class="cls-10" d="M589.24,602.47l-15.63-9.6a.91.91,0,0,1,0-1.55L590,581.09a1.64,1.64,0,0,1,1.71,0l15.65,9.62a.9.9,0,0,1,0,1.53L591,602.48A1.64,1.64,0,0,1,589.24,602.47Z" transform="translate(-172.79 -25.21)"/><path class="cls-10" d="M566.07,588.19l-15.62-9.6a.91.91,0,0,1,0-1.55l16.37-10.23a1.64,1.64,0,0,1,1.71,0l15.65,9.62a.89.89,0,0,1,0,1.52l-16.39,10.24A1.62,1.62,0,0,1,566.07,588.19Z" transform="translate(-172.79 -25.21)"/><path class="cls-10" d="M542.91,573.91l-15.63-9.61a.91.91,0,0,1,0-1.54l16.37-10.23a1.6,1.6,0,0,1,1.71,0L561,562.15a.89.89,0,0,1,0,1.52l-16.38,10.24A1.66,1.66,0,0,1,542.91,573.91Z" transform="translate(-172.79 -25.21)"/><path class="cls-10" d="M771.9,747.33l-15.63-9.61a.9.9,0,0,1,0-1.54L772.64,726a1.64,1.64,0,0,1,1.71,0L790,735.57a.89.89,0,0,1,0,1.52l-16.38,10.24A1.62,1.62,0,0,1,771.9,747.33Z" transform="translate(-172.79 -25.21)"/><path class="cls-10" d="M748.73,733.05l-15.63-9.61a.91.91,0,0,1,0-1.54l16.38-10.24a1.62,1.62,0,0,1,1.71,0l15.65,9.61a.9.9,0,0,1,0,1.53l-16.38,10.24A1.66,1.66,0,0,1,748.73,733.05Z" transform="translate(-172.79 -25.21)"/><path class="cls-10" d="M725.57,718.76l-15.63-9.6a.91.91,0,0,1,0-1.55l16.37-10.23a1.64,1.64,0,0,1,1.71,0L743.67,707a.9.9,0,0,1,0,1.53l-16.38,10.24A1.64,1.64,0,0,1,725.57,718.76Z" transform="translate(-172.79 -25.21)"/><path class="cls-10" d="M702.4,704.48l-15.63-9.6a.91.91,0,0,1,0-1.55l16.37-10.23a1.64,1.64,0,0,1,1.71,0l15.65,9.62a.89.89,0,0,1,0,1.52l-16.39,10.24A1.62,1.62,0,0,1,702.4,704.48Z" transform="translate(-172.79 -25.21)"/><path class="cls-10" d="M679.24,690.2l-15.63-9.61a.91.91,0,0,1,0-1.54L680,668.82a1.6,1.6,0,0,1,1.71,0l15.65,9.62a.89.89,0,0,1,0,1.52L681,690.2A1.66,1.66,0,0,1,679.24,690.2Z" transform="translate(-172.79 -25.21)"/><path class="cls-10" d="M656.08,675.92l-15.63-9.61a.9.9,0,0,1,0-1.54l16.37-10.24a1.64,1.64,0,0,1,1.71,0l15.65,9.62a.9.9,0,0,1,0,1.53L657.8,675.92A1.66,1.66,0,0,1,656.08,675.92Z" transform="translate(-172.79 -25.21)"/><path class="cls-10" d="M632.91,661.63,617.28,652a.92.92,0,0,1,0-1.55l16.38-10.23a1.64,1.64,0,0,1,1.71,0L651,649.87a.89.89,0,0,1,0,1.52l-16.38,10.24A1.62,1.62,0,0,1,632.91,661.63Z" transform="translate(-172.79 -25.21)"/><path class="cls-10" d="M609.75,647.35l-15.63-9.61a.9.9,0,0,1,0-1.54L610.49,626a1.6,1.6,0,0,1,1.71,0l15.65,9.62a.89.89,0,0,1,0,1.52l-16.38,10.24A1.66,1.66,0,0,1,609.75,647.35Z" transform="translate(-172.79 -25.21)"/><path class="cls-10" d="M586.58,633.07,571,623.46a.9.9,0,0,1,0-1.54l16.37-10.24a1.64,1.64,0,0,1,1.71,0l15.65,9.62a.91.91,0,0,1,0,1.53L588.3,633.07A1.66,1.66,0,0,1,586.58,633.07Z" transform="translate(-172.79 -25.21)"/><path class="cls-10" d="M563.42,618.78l-15.63-9.6a.91.91,0,0,1,0-1.55l16.37-10.23a1.64,1.64,0,0,1,1.71,0L581.52,607a.89.89,0,0,1,0,1.52l-16.38,10.24A1.62,1.62,0,0,1,563.42,618.78Z" transform="translate(-172.79 -25.21)"/><path class="cls-10" d="M540.25,604.5l-15.62-9.61a.9.9,0,0,1,0-1.54L541,583.12a1.64,1.64,0,0,1,1.71,0l15.65,9.62a.89.89,0,0,1,0,1.52L542,604.5A1.64,1.64,0,0,1,540.25,604.5Z" transform="translate(-172.79 -25.21)"/><path class="cls-10" d="M517.09,590.22l-15.63-9.61a.91.91,0,0,1,0-1.54l16.37-10.23a1.62,1.62,0,0,1,1.72,0l15.64,9.61a.9.9,0,0,1,0,1.53l-16.38,10.24A1.66,1.66,0,0,1,517.09,590.22Z" transform="translate(-172.79 -25.21)"/><path class="cls-10" d="M746.08,763.64,730.45,754a.9.9,0,0,1,0-1.54l16.37-10.23a1.6,1.6,0,0,1,1.71,0l15.65,9.62a.89.89,0,0,1,0,1.52L747.8,763.64A1.66,1.66,0,0,1,746.08,763.64Z" transform="translate(-172.79 -25.21)"/><path class="cls-10" d="M722.91,749.36l-15.63-9.61a.91.91,0,0,1,0-1.54L723.66,728a1.64,1.64,0,0,1,1.71,0L741,737.59a.91.91,0,0,1,0,1.53l-16.39,10.24A1.66,1.66,0,0,1,722.91,749.36Z" transform="translate(-172.79 -25.21)"/><path class="cls-10" d="M699.75,735.07l-15.63-9.6a.91.91,0,0,1,0-1.55l16.37-10.23a1.64,1.64,0,0,1,1.71,0l15.65,9.62a.89.89,0,0,1,0,1.52l-16.38,10.24A1.62,1.62,0,0,1,699.75,735.07Z" transform="translate(-172.79 -25.21)"/><path class="cls-10" d="M583.93,663.66l-15.63-9.61a.9.9,0,0,1,0-1.54l16.37-10.23a1.6,1.6,0,0,1,1.71,0L602,651.9a.89.89,0,0,1,0,1.52l-16.38,10.24A1.66,1.66,0,0,1,583.93,663.66Z" transform="translate(-172.79 -25.21)"/><path class="cls-10" d="M560.76,649.38l-15.63-9.61a.9.9,0,0,1,0-1.54L561.51,628a1.64,1.64,0,0,1,1.71,0l15.65,9.62a.9.9,0,0,1,0,1.53l-16.39,10.24A1.66,1.66,0,0,1,560.76,649.38Z" transform="translate(-172.79 -25.21)"/><path class="cls-10" d="M537.6,635.09,522,625.49a.92.92,0,0,1,0-1.55l16.37-10.23a1.64,1.64,0,0,1,1.71,0l15.65,9.62a.89.89,0,0,1,0,1.52l-16.38,10.24A1.62,1.62,0,0,1,537.6,635.09Z" transform="translate(-172.79 -25.21)"/><path class="cls-10" d="M524.16,614.73l-15.63-9.61a.9.9,0,0,1,0-1.54l6.65-4.15a1.6,1.6,0,0,1,1.71,0l15.65,9.62a.89.89,0,0,1,0,1.52l-6.66,4.16A1.64,1.64,0,0,1,524.16,614.73Z" transform="translate(-172.79 -25.21)"/><path class="cls-10" d="M514.42,620.82l-15.63-9.61a.91.91,0,0,1,0-1.54l6.65-4.16a1.64,1.64,0,0,1,1.71,0l15.65,9.62a.9.9,0,0,1,0,1.53l-6.66,4.16A1.66,1.66,0,0,1,514.42,620.82Z" transform="translate(-172.79 -25.21)"/><path class="cls-10" d="M491.27,606.53l-15.63-9.61a.91.91,0,0,1,0-1.54L492,585.14a1.64,1.64,0,0,1,1.71,0l15.65,9.62a.9.9,0,0,1,0,1.53L493,606.53A1.66,1.66,0,0,1,491.27,606.53Z" transform="translate(-172.79 -25.21)"/><path class="cls-10" d="M591.46,666.79l16.38-10.23a1.64,1.64,0,0,1,1.71,0l15.65,9.62,0,0,57.35,35.37h0L694.69,709a.89.89,0,0,1,0,1.52L678.3,720.79a1.64,1.64,0,0,1-1.72,0L661,711.18h0l-60.71-37.44h0l-8.77-5.39A.92.92,0,0,1,591.46,666.79Z" transform="translate(-172.79 -25.21)"/><path class="cls-11" d="M1220.68,472.53v66.62a5.47,5.47,0,0,0,2.35,4.51c.07,0,.13.1.2.13L1245,557.22l45,27.7a2.07,2.07,0,0,0,2.35,0l8.82-5.43a2.57,2.57,0,0,0,1.26-2.22v-64.4a7.18,7.18,0,0,0-3.45-6.17l-66.09-40.76a2.72,2.72,0,0,0-2.78,0l-8.38,5.11a1.46,1.46,0,0,0-.3.16A1.69,1.69,0,0,0,1220.68,472.53Z" transform="translate(-172.79 -25.21)"/><path class="cls-12" d="M1220.68,472.53v66.62a5.47,5.47,0,0,0,2.35,4.51c.07,0,.13.1.2.13L1245,557.22l45,27.7a2.07,2.07,0,0,0,2.35,0l8.82-5.43a2.57,2.57,0,0,0,1.26-2.22v-64.4a7.18,7.18,0,0,0-3.45-6.17l-66.09-40.76a2.72,2.72,0,0,0-2.78,0l-8.38,5.11a1.46,1.46,0,0,0-.3.16A1.69,1.69,0,0,0,1220.68,472.53Z" transform="translate(-172.79 -25.21)"/><path class="cls-11" d="M1220.68,472.53v66.62a5.47,5.47,0,0,0,2.35,4.51c.07,0,.13.1.2.13L1245,557.22l45,27.7a2.07,2.07,0,0,0,2.35,0,2.16,2.16,0,0,0,1-1.82V518.14a6.89,6.89,0,0,0-3.22-5.8l-66.91-41.23a1.6,1.6,0,0,0-1.49-.13,1.46,1.46,0,0,0-.3.16A1.69,1.69,0,0,0,1220.68,472.53Z" transform="translate(-172.79 -25.21)"/><path class="cls-13" d="M1080,248.52v66.62a5.44,5.44,0,0,0,2.35,4.5l.2.14,21.77,13.42,45,27.71a2.07,2.07,0,0,0,2.35,0l8.82-5.43a2.58,2.58,0,0,0,1.26-2.22v-64.4a7.17,7.17,0,0,0-3.45-6.16l-66.09-40.77a2.69,2.69,0,0,0-2.78,0L1081,247a1.14,1.14,0,0,0-.3.17A1.65,1.65,0,0,0,1080,248.52Z" transform="translate(-172.79 -25.21)"/><path class="cls-14" d="M1080,248.52v66.62a5.44,5.44,0,0,0,2.35,4.5l.2.14,21.77,13.42,45,27.71a2.07,2.07,0,0,0,2.35,0l8.82-5.43a2.58,2.58,0,0,0,1.26-2.22v-64.4a7.17,7.17,0,0,0-3.45-6.16l-66.09-40.77a2.69,2.69,0,0,0-2.78,0L1081,247a1.14,1.14,0,0,0-.3.17A1.65,1.65,0,0,0,1080,248.52Z" transform="translate(-172.79 -25.21)"/><path class="cls-13" d="M1080,248.52v66.62a5.44,5.44,0,0,0,2.35,4.5l.2.14,21.77,13.42,45,27.71a2.07,2.07,0,0,0,2.35,0,2.15,2.15,0,0,0,1-1.82V294.12a6.89,6.89,0,0,0-3.22-5.8l-66.92-41.23A1.62,1.62,0,0,0,1081,247a1.14,1.14,0,0,0-.3.17A1.65,1.65,0,0,0,1080,248.52Z" transform="translate(-172.79 -25.21)"/><path class="cls-10" d="M1128.32,317.13c.62,3.5,3.58,6.34,6.62,6.34s5-2.84,4.38-6.34-3.58-6.34-6.62-6.34S1127.71,313.63,1128.32,317.13Z" transform="translate(-172.79 -25.21)"/><path class="cls-10" d="M1108.83,306.19c.62,3.5,3.58,6.34,6.61,6.34s5-2.84,4.38-6.34-3.58-6.34-6.61-6.34S1108.21,302.69,1108.83,306.19Z" transform="translate(-172.79 -25.21)"/><path class="cls-10" d="M1089.33,295.25c.62,3.5,3.58,6.34,6.62,6.34s5-2.84,4.38-6.34-3.58-6.34-6.62-6.34S1088.72,291.75,1089.33,295.25Z" transform="translate(-172.79 -25.21)"/><path class="cls-15" d="M1009.08,428.84v66.62a5.48,5.48,0,0,0,2.36,4.51c.06,0,.13.1.19.13l21.78,13.42,45,27.71a2.09,2.09,0,0,0,2.35,0l8.82-5.44a2.56,2.56,0,0,0,1.25-2.22v-64.4a7.16,7.16,0,0,0-3.44-6.16l-66.09-40.77a2.69,2.69,0,0,0-2.78,0l-8.39,5.1a1.52,1.52,0,0,0-.3.17A1.68,1.68,0,0,0,1009.08,428.84Z" transform="translate(-172.79 -25.21)"/><path class="cls-16" d="M1009.08,428.84v66.62a5.48,5.48,0,0,0,2.36,4.51c.06,0,.13.1.19.13l21.78,13.42,45,27.71a2.09,2.09,0,0,0,2.35,0,2.2,2.2,0,0,0,1-1.83V474.45a6.87,6.87,0,0,0-3.21-5.8l-66.92-41.23a1.6,1.6,0,0,0-1.49-.14,1.52,1.52,0,0,0-.3.17A1.68,1.68,0,0,0,1009.08,428.84Z" transform="translate(-172.79 -25.21)"/><polygon class="cls-10" points="849.27 430.17 849.27 434.8 870.86 460.13 892.5 461.78 892.5 457.18 849.27 430.17"/><polygon class="cls-10" points="870.86 462.82 849.27 437.48 849.27 461.13 892.5 488.14 892.5 464.47 870.86 462.82"/><path class="cls-15" d="M459.46,48.78v70.64a5.77,5.77,0,0,0,2.5,4.78c.07,0,.14.11.21.14l40.69,24.74,47.69,29.38a2.23,2.23,0,0,0,2.5,0l9.35-5.77a2.72,2.72,0,0,0,1.33-2.35V102a7.62,7.62,0,0,0-3.65-6.54L472.39,41.75a2.84,2.84,0,0,0-2.95,0l-8.89,5.41a1.72,1.72,0,0,0-.32.18A1.8,1.8,0,0,0,459.46,48.78Z" transform="translate(-172.79 -25.21)"/><path class="cls-16" d="M459.45,48.78v70.64a5.79,5.79,0,0,0,2.49,4.78c.08,0,.15.11.22.14l88.38,54.12a2.23,2.23,0,0,0,2.5,0,2.33,2.33,0,0,0,1.05-1.94V107.64a7.31,7.31,0,0,0-3.41-6.15L462.12,47.26a1.68,1.68,0,0,0-1.9,0A1.8,1.8,0,0,0,459.45,48.78Z" transform="translate(-172.79 -25.21)"/><path class="cls-9" d="M487.74,45.56V59a1.12,1.12,0,0,0,.48.91l0,0,28.61,17.71,9,5.57a.44.44,0,0,0,.48,0l1.77-1.09a.53.53,0,0,0,.25-.45v-13a1.46,1.46,0,0,0-.69-1.24l-37.53-23.2a.54.54,0,0,0-.55,0l-1.69,1-.06,0A.33.33,0,0,0,487.74,45.56Z" transform="translate(-172.79 -25.21)"/><path class="cls-10" d="M487.74,45.56V59a1.12,1.12,0,0,0,.48.91l0,0,37.65,23.28a.44.44,0,0,0,.48,0,.45.45,0,0,0,.2-.37v-13a1.41,1.41,0,0,0-.65-1.17L488.25,45.27a.33.33,0,0,0-.3,0l-.06,0A.33.33,0,0,0,487.74,45.56Z" transform="translate(-172.79 -25.21)"/><path class="cls-9" d="M465.09,34l.06,0,1.68-1a.54.54,0,0,1,.56,0l37.53,23.2a1.44,1.44,0,0,1,.69,1.24V71.11l-1.83,1.15V71.7l-.2.12a.4.4,0,0,1-.47,0l-9-5.57L465.45,48.55l0,0a1.11,1.11,0,0,1-.47-.91V34.23A.33.33,0,0,1,465.09,34Z" transform="translate(-172.79 -25.21)"/><path class="cls-15" d="M527.6,63.83l9.18-5.3h0a2.27,2.27,0,0,1,2.44,0l20.49,13a8.62,8.62,0,0,1,4,7.29v27.09L535.67,88.12v-14L535,75.47s-3.36,1-3.65,1S526,79.62,526,79.62V67.38Z" transform="translate(-172.79 -25.21)"/><path class="cls-16" d="M529.59,64.05l20.49,13a8.62,8.62,0,0,1,4,7.29V111.4L526,93.63V66A2.31,2.31,0,0,1,529.59,64.05Z" transform="translate(-172.79 -25.21)"/><path class="cls-10" d="M465.09,34l.06,0a.33.33,0,0,1,.3,0l37.69,23.3a1.37,1.37,0,0,1,.64,1.16V72.26l-38.84-24v-14A.33.33,0,0,1,465.09,34Z" transform="translate(-172.79 -25.21)"/><path class="cls-4" d="M1211.38,923.25l17.55-6.23a3,3,0,0,1,3.61,4.31l-5.22,9.19a13,13,0,0,1-4.42,4.6l-130.21,80.75a16.77,16.77,0,0,1-17.66,0h0a5,5,0,0,1,0-8.41l133.87-83A13.16,13.16,0,0,1,1211.38,923.25Z" transform="translate(-172.79 -25.21)"/><path class="cls-16" d="M1213.46,910.67l1.61,3,6.11,11.38,15.2-17.73a.54.54,0,0,0-.17-.85.42.42,0,0,0-.43-.13Z" transform="translate(-172.79 -25.21)"/><path class="cls-17" d="M1213.46,910.67l1.61,3,5-.26,16.18-6.94a.42.42,0,0,0-.43-.13Z" transform="translate(-172.79 -25.21)"/><path class="cls-18" d="M1076.33,995.16l2.36,4.16,6.06,10.69,134.44-83.37h0a5.32,5.32,0,0,0,1-.64,6.06,6.06,0,0,0,2-2.71,9.47,9.47,0,0,0-.5-7.36,10.3,10.3,0,0,0-1.67-2.5h0a7.73,7.73,0,0,0-6.39-2.78,5.62,5.62,0,0,0-1.83.51,1.82,1.82,0,0,0-.31.16l-.38.24a.67.67,0,0,0-.14.09l-.1.08Z" transform="translate(-172.79 -25.21)"/><path class="cls-19" d="M1076.33,995.16l2.36,4.16,5.94-1.79L1220,913.44a0,0,0,0,0,0,0h0a7.73,7.73,0,0,0-6.39-2.78,5.62,5.62,0,0,0-1.83.51,1.82,1.82,0,0,0-.31.16l-.38.24a.67.67,0,0,0-.14.09l-.1.08Z" transform="translate(-172.79 -25.21)"/><path class="cls-20" d="M1073.83,1005.87c2.05,4.27,6.47,6.42,9.89,4.78h0a5.4,5.4,0,0,0,1-.64,6.28,6.28,0,0,0,2-2.71,9.47,9.47,0,0,0-.5-7.36c-1.7-3.54-5-5.62-8.06-5.29a5.5,5.5,0,0,0-1.84.51l-.3.16-.38.24a1.1,1.1,0,0,0-.14.09C1072.74,997.61,1072,1002,1073.83,1005.87Z" transform="translate(-172.79 -25.21)"/><path class="cls-6" d="M1099.19,981l-11.41,7.11a.21.21,0,0,1,.13-.07,5.5,5.5,0,0,1,1.71-.46,7.76,7.76,0,0,1,6.44,2.86,9.06,9.06,0,0,1,1.65,2.43,9.57,9.57,0,0,1,.46,7.37,6.32,6.32,0,0,1-1.32,2.14,2.66,2.66,0,0,1-.52.49l10.91-6.71s.46-.29.69-.46a6.13,6.13,0,0,0,1.94-2.69,9.36,9.36,0,0,0-.49-7.37,9.49,9.49,0,0,0-1.64-2.47,7.75,7.75,0,0,0-6.41-2.82,5.4,5.4,0,0,0-1.85.52C1099.39,980.89,1099.29,981,1099.19,981Z" transform="translate(-172.79 -25.21)"/><path class="cls-10" d="M1087.48,988.26a1,1,0,0,1,.27-.16c-.07,0-.1.06-.14.06Z" transform="translate(-172.79 -25.21)"/><path class="cls-21" d="M1076.2,995.26a4.63,4.63,0,0,1,1.85-.49,7.54,7.54,0,0,1,6.37,2.8,10.14,10.14,0,0,1,1.68,2.5,9.26,9.26,0,0,1,.49,7.33,6.31,6.31,0,0,1-2,2.73l11-6.81a3.88,3.88,0,0,0,.69-.46,2.66,2.66,0,0,0,.52-.49,5.68,5.68,0,0,0,1.45-2.21,9.56,9.56,0,0,0-.49-7.36,11.2,11.2,0,0,0-1.61-2.47,7.86,7.86,0,0,0-6.45-2.83,5,5,0,0,0-1.84.53.21.21,0,0,0-.13.07h0c-.07,0-.1.06-.14.06l-.13.1Z" transform="translate(-172.79 -25.21)"/><path class="cls-4" d="M1249,944.32l17.55-6.23a3,3,0,0,1,3.61,4.31l-5.22,9.19a13,13,0,0,1-4.42,4.6l-130.21,80.75a16.77,16.77,0,0,1-17.66,0h0a5,5,0,0,1,0-8.41l133.87-83A12.61,12.61,0,0,1,1249,944.32Z" transform="translate(-172.79 -25.21)"/><path class="cls-16" d="M1251.09,931.74l1.61,3,6.11,11.38,15.2-17.72a.55.55,0,0,0-.17-.86.44.44,0,0,0-.43-.13Z" transform="translate(-172.79 -25.21)"/><path class="cls-17" d="M1251.09,931.74l1.61,3,5-.26,16.18-6.94a.44.44,0,0,0-.43-.13Z" transform="translate(-172.79 -25.21)"/><path class="cls-18" d="M1114,1016.24l2.36,4.16,6.06,10.68,134.44-83.37h0a5.9,5.9,0,0,0,1-.65,6,6,0,0,0,2-2.71,9.44,9.44,0,0,0-.5-7.35,10.36,10.36,0,0,0-1.67-2.51h0a7.72,7.72,0,0,0-6.39-2.77,5.16,5.16,0,0,0-1.83.51,1.77,1.77,0,0,0-.31.15l-.38.24-.14.09a.39.39,0,0,1-.1.08Z" transform="translate(-172.79 -25.21)"/><path class="cls-19" d="M1114,1016.24l2.36,4.16,5.94-1.79,135.41-84.1v0h0a7.72,7.72,0,0,0-6.39-2.77,5.16,5.16,0,0,0-1.83.51,1.77,1.77,0,0,0-.31.15l-.38.24-.14.09a.39.39,0,0,1-.1.08Z" transform="translate(-172.79 -25.21)"/><path class="cls-20" d="M1111.46,1026.94c2,4.28,6.47,6.42,9.89,4.79h0a4.66,4.66,0,0,0,1-.65,6.22,6.22,0,0,0,2-2.71,9.44,9.44,0,0,0-.5-7.35c-1.7-3.55-5-5.63-8.06-5.3a5.74,5.74,0,0,0-1.84.51l-.3.16-.38.24-.14.09C1110.37,1018.69,1109.59,1023,1111.46,1026.94Z" transform="translate(-172.79 -25.21)"/><path class="cls-6" d="M1136.82,1002.07l-11.41,7.1a.28.28,0,0,1,.13-.07,5.5,5.5,0,0,1,1.71-.46,7.79,7.79,0,0,1,6.44,2.86,9.11,9.11,0,0,1,1.65,2.44,9.54,9.54,0,0,1,.46,7.36,6.22,6.22,0,0,1-1.32,2.14,2.39,2.39,0,0,1-.52.49l10.91-6.7.69-.46a6.22,6.22,0,0,0,1.94-2.7,9.36,9.36,0,0,0-.49-7.37,9.19,9.19,0,0,0-1.64-2.46,7.74,7.74,0,0,0-6.41-2.83,5.42,5.42,0,0,0-1.85.53C1137,1002,1136.92,1002,1136.82,1002.07Z" transform="translate(-172.79 -25.21)"/><path class="cls-10" d="M1125.11,1009.33a1.28,1.28,0,0,1,.27-.16c-.07,0-.1.07-.14.07Z" transform="translate(-172.79 -25.21)"/><path class="cls-21" d="M1113.83,1016.34a4.64,4.64,0,0,1,1.85-.5,7.54,7.54,0,0,1,6.37,2.8,10.14,10.14,0,0,1,1.68,2.5,9.26,9.26,0,0,1,.49,7.33,6.26,6.26,0,0,1-2,2.73l11-6.81a3.88,3.88,0,0,0,.69-.46,2.39,2.39,0,0,0,.52-.49,5.72,5.72,0,0,0,1.45-2.2,9.58,9.58,0,0,0-.49-7.37,11.13,11.13,0,0,0-1.61-2.46,7.83,7.83,0,0,0-6.45-2.83,5,5,0,0,0-1.84.52.28.28,0,0,0-.13.07h0c-.07,0-.1.07-.14.07l-.13.09Z" transform="translate(-172.79 -25.21)"/><path class="cls-10" d="M1279.14,540.77c-2.19-1.29-6-1.53-7.34,0a10.43,10.43,0,0,0,.92-4.42c0-7.9-6.32-18-14.2-22.64s-14.08-2-14.32,5.6c-1-2.49-2.29-5.39-6-7.32-4.66-2.43-9,.29-9,4.9,0,5.38,2.24,11.23,7.61,14.36l40.28,23.52c3.73,2.18,6.77.78,7.56-2.88S1282.87,542.94,1279.14,540.77Z" transform="translate(-172.79 -25.21)"/><path class="cls-22" d="M1109.39,909.2a13.06,13.06,0,0,1-5.21,5.9l-17.37,10.69h-.09l-1.64,1,8.68-8h.09Z" transform="translate(-172.79 -25.21)"/><path class="cls-4" d="M1180.81,899.78l-17.37,10.71h-.07l-131.58,80.29a26,26,0,0,1-5.92,2.63,27.05,27.05,0,0,1-22.54-2.63L818.8,878.16a13.47,13.47,0,0,1-5.91-15.47,13.22,13.22,0,0,1,5.91-7.7l127.29-77.73,23.78-14.51a23.85,23.85,0,0,1,24.41,0l186.72,114A13.53,13.53,0,0,1,1180.81,899.78Z" transform="translate(-172.79 -25.21)"/><path class="cls-23" d="M1187.25,877.87v.07a18.05,18.05,0,0,1-1.59,2.52,2.77,2.77,0,0,1-.62.77,13.22,13.22,0,0,1-2.94,2.44l-17.28,10.59-.16.08-131.57,80.33a26.09,26.09,0,0,1-5.81,2.63v.08h-.07a35.67,35.67,0,0,1-5.49,1.12h-.43a32.22,32.22,0,0,1-5.38,0h-.27a29.94,29.94,0,0,1-5.22-1.2,9.26,9.26,0,0,0-1-.27,27.7,27.7,0,0,1-4.84-2.36L820.1,862.05a12.69,12.69,0,0,1-3.25-2.79c-.23-.34-.5-.69-.66-1a16.23,16.23,0,0,1-1.51-2.59,7.39,7.39,0,0,1-.42-1.13,15.08,15.08,0,0,1-.62-3.13v-4.87h0V839l6,.19a4.58,4.58,0,0,1,.46-.31l127.28-77.74,14.23-8.66.7-.35,8.86-5.49a23.6,23.6,0,0,1,24.4,0l52.29,32,8.32-5.11a8.76,8.76,0,0,1,9.2,0l64.94,39.64,5.33,3.25a4.87,4.87,0,0,1,2.44,3.64v1.23a5.27,5.27,0,0,1-2.51,3.83l-5.84,3.56,8.35,5.11,32,19.53,12.19,7.39A13.51,13.51,0,0,1,1187.25,877.87Z" transform="translate(-172.79 -25.21)"/><path class="cls-24" d="M1027.28,967.83v9.55h-.07a35.67,35.67,0,0,1-5.49,1.12h-.43a32.22,32.22,0,0,1-5.38,0h-.27a29.94,29.94,0,0,1-5.22-1.2,9.26,9.26,0,0,0-1-.27,27.7,27.7,0,0,1-4.84-2.36L820.1,862.05a12.69,12.69,0,0,1-3.25-2.79c-.23-.34-.5-.69-.66-1a16.23,16.23,0,0,1-1.51-2.59,7.39,7.39,0,0,1-.42-1.13,15.08,15.08,0,0,1-.62-3.13v-4.87h0v-5.49l2.75.89Z" transform="translate(-172.79 -25.21)"/><path class="cls-13" d="M1138.09,811.92v9.32a5.27,5.27,0,0,1-2.51,3.83l-5.84,3.56,8.35,5.11,0,13.92s-12.72-24.13-12.72-25.1v-8.7l5-.74Z" transform="translate(-172.79 -25.21)"/><path class="cls-14" d="M1138.09,811.92v9.32a5.27,5.27,0,0,1-2.51,3.83l-5.84,3.56,8.35,5.11,0,13.92s-12.72-24.13-12.72-25.1v-8.7l5-.74Z" transform="translate(-172.79 -25.21)"/><path class="cls-24" d="M1188.55,861.46l-8-1.83-10.47-6.35-.66,3.8L1134,849l-74.94-2.32q-.07,8.72-.1,17.44l108.21,6.28-2.52,14.54v9.46l.17-.08,17.29-10.6a13.77,13.77,0,0,0,3-2.43,5.19,5.19,0,0,0,.61-.78,16,16,0,0,0,1.56-2.52v-.09a13.75,13.75,0,0,0,1.26-6.26h.06Z" transform="translate(-172.79 -25.21)"/><path class="cls-13" d="M1135.59,815.52l-6.53,4h0l-81.74-50.12,9-5.45a8.92,8.92,0,0,1,9.19,0l70.24,42.89A5.09,5.09,0,0,1,1135.59,815.52Z" transform="translate(-172.79 -25.21)"/><path class="cls-6" d="M1182.1,874.19l-17.36,10.72h-.08L1033.09,965.2a28,28,0,0,1-28.47,0L820.1,852.57a13.47,13.47,0,0,1-5.92-15.47,13.19,13.19,0,0,1,5.92-7.69l127.28-77.74,23.79-14.51a23.83,23.83,0,0,1,24.4,0l186.73,114A13.53,13.53,0,0,1,1182.1,874.19Z" transform="translate(-172.79 -25.21)"/><path class="cls-25" d="M1027.17,967.83c-7.47,2.43-16,2-22.82-2.19L819.79,852.7a13.48,13.48,0,0,1-5.61-15.6c5.65,3.83,10.64,7.08,12.92,8.51l184.56,112.66C1014.68,960.09,1020.44,963.88,1027.17,967.83Z" transform="translate(-172.79 -25.21)"/><path class="cls-25" d="M1182.11,874.21l-17.37,10.68h-.09L947.39,751.68,961.63,743l4.16-2.52,5.39-3.3a23.65,23.65,0,0,1,24.4,0l186.7,114A13.54,13.54,0,0,1,1182.11,874.21Z" transform="translate(-172.79 -25.21)"/><circle class="cls-26" cx="784.63" cy="750.02" r="1.01"/><path class="cls-26" d="M1115.77,871.31a1,1,0,1,1-1-1A1,1,0,0,1,1115.77,871.31Z" transform="translate(-172.79 -25.21)"/><path class="cls-26" d="M860.22,835.3a1,1,0,1,1-1-1A1,1,0,0,1,860.22,835.3Z" transform="translate(-172.79 -25.21)"/><circle class="cls-26" cx="843.75" cy="906.16" r="1.01"/><polygon class="cls-27" points="815.39 729.21 812.74 730.83 790.23 717.04 792.88 715.44 815.39 729.21"/><polygon class="cls-6" points="815.37 729.19 812.72 730.85 803.43 725.16 806.09 723.5 815.37 729.19"/><polygon class="cls-27" points="980.55 839.02 983.19 837.41 1005.7 851.2 1003.05 852.8 980.55 839.02"/><polygon class="cls-6" points="980.56 839.04 983.22 837.38 992.5 843.07 989.85 844.73 980.56 839.04"/><path class="cls-13" d="M414.1,251.84v98.83a8.09,8.09,0,0,0,3.49,6.68c.1,0,.2.15.3.2l32.3,19.91,66.73,41.11a3.1,3.1,0,0,0,3.49-.05l13.08-8.06a3.82,3.82,0,0,0,1.86-3.3V311.63a10.64,10.64,0,0,0-5.11-9.15L432.2,242a4,4,0,0,0-4.13-.05l-12.44,7.57a2,2,0,0,0-.45.25A2.49,2.49,0,0,0,414.1,251.84Z" transform="translate(-172.79 -25.21)"/><path class="cls-14" d="M414.1,251.84v98.83a8.09,8.09,0,0,0,3.49,6.68c.1,0,.2.15.3.2l32.3,19.91,66.73,41.11a3.1,3.1,0,0,0,3.49-.05l13.08-8.06a3.82,3.82,0,0,0,1.86-3.3V311.63a10.64,10.64,0,0,0-5.11-9.15L432.2,242a4,4,0,0,0-4.13-.05l-12.44,7.57a2,2,0,0,0-.45.25A2.49,2.49,0,0,0,414.1,251.84Z" transform="translate(-172.79 -25.21)"/><path class="cls-13" d="M414.1,251.84v98.83a8.09,8.09,0,0,0,3.49,6.68c.1,0,.2.15.3.2l32.3,19.91,66.73,41.11a3.1,3.1,0,0,0,3.49-.05,3.23,3.23,0,0,0,1.47-2.7V319.49a10.21,10.21,0,0,0-4.77-8.6l-99.27-61.17a2.4,2.4,0,0,0-2.21-.2,2,2,0,0,0-.45.25A2.49,2.49,0,0,0,414.1,251.84Z" transform="translate(-172.79 -25.21)"/><path class="cls-25" d="M422.15,351.09,422,351l-.12-83.83a3.27,3.27,0,0,1,5-2.79l86.22,53.12a2.46,2.46,0,0,1,1.09,2v82.44a3.27,3.27,0,0,1-5,2.78Z" transform="translate(-172.79 -25.21)"/><text class="cls-28" transform="matrix(0.99, 0.61, -0.02, 1, 255.15, 311.17)">PS</text><path class="cls-4" d="M896.39,963.37,789.48,898.12a5.43,5.43,0,0,0-5.66,0l-2.63,1.61-18.4-11.24a5.08,5.08,0,0,0-5.29,0l-26.8,16.36a2.47,2.47,0,0,0,0,4.22l17.59,10.74L744.66,922a2,2,0,0,0,0,3.45l108.19,66a4.76,4.76,0,0,0,5,0L896.39,968A2.69,2.69,0,0,0,896.39,963.37Z" transform="translate(-172.79 -25.21)"/><polygon class="cls-21" points="718.56 919.23 718.56 933.16 694.86 932.21 708.27 926.1 708.03 920.53 711.43 919.15 718.56 919.23"/><polygon class="cls-14" points="718.56 919.23 718.56 933.16 694.86 932.21 708.27 926.1 708.03 920.53 711.43 919.15 718.56 919.23"/><path class="cls-5" d="M744.33,900.48l23.6-14.4a4.44,4.44,0,0,1,4.66,0l71,43.36-29,17.68L744.33,904.2A2.18,2.18,0,0,1,744.33,900.48Z" transform="translate(-172.79 -25.21)"/><path class="cls-21" d="M756.63,920l34.48-21a4.73,4.73,0,0,1,5,0l94.15,57.45a2.37,2.37,0,0,1,0,4l-34,20.73a4.19,4.19,0,0,1-4.37,0L756.63,923A1.77,1.77,0,0,1,756.63,920Z" transform="translate(-172.79 -25.21)"/><path class="cls-14" d="M756.63,920l34.48-21a4.73,4.73,0,0,1,5,0l94.15,57.45a2.37,2.37,0,0,1,0,4l-34,20.73a4.19,4.19,0,0,1-4.37,0L756.63,923A1.77,1.77,0,0,1,756.63,920Z" transform="translate(-172.79 -25.21)"/><polygon class="cls-21" points="582.98 882.71 582.98 896.32 589.72 892.1 593.12 888.93 593.96 885.12 591.73 882.71 582.98 882.71"/><polygon class="cls-14" points="582.98 882.71 582.98 896.32 589.72 892.1 593.12 888.93 593.96 885.12 591.73 882.71 582.98 882.71"/><path class="cls-5" d="M743.29,893v9.29s7.85,1.12,8.13,1.12.93-.83.93-3.06a41.68,41.68,0,0,0-.93-6.45l-1.58-.9Z" transform="translate(-172.79 -25.21)"/><path class="cls-6" d="M744.33,891.08l23.6-14.4a4.49,4.49,0,0,1,4.66,0l71,43.36-29,17.68L744.33,894.8A2.18,2.18,0,0,1,744.33,891.08Z" transform="translate(-172.79 -25.21)"/><polygon class="cls-21" points="589.72 868.65 586.57 870.6 581.98 867.77 585.12 865.82 589.72 868.65"/><polygon class="cls-21" points="602.57 860.65 599.42 862.6 594.83 859.77 597.98 857.82 602.57 860.65"/><path class="cls-21" d="M756.63,906.2l34.48-21a4.73,4.73,0,0,1,5,0l94.15,57.45a2.37,2.37,0,0,1,0,4l-34,20.73a4.19,4.19,0,0,1-4.37,0l-95.26-58.14A1.77,1.77,0,0,1,756.63,906.2Z" transform="translate(-172.79 -25.21)"/><path class="cls-21" d="M769,35.4v96.49a7.91,7.91,0,0,0,3.4,6.53c.1.05.2.14.29.19l31.54,19.45,65.15,40.13a3,3,0,0,0,3.41-.05l12.77-7.87a3.72,3.72,0,0,0,1.82-3.22V93.77a10.4,10.4,0,0,0-5-8.93l-95.73-59a3.94,3.94,0,0,0-4,0L770.5,33.14a2.09,2.09,0,0,0-.43.24A2.43,2.43,0,0,0,769,35.4Z" transform="translate(-172.79 -25.21)"/><path class="cls-14" d="M769,35.4v96.49a7.91,7.91,0,0,0,3.4,6.53c.1.05.2.14.29.19l31.54,19.45,65.15,40.13a3,3,0,0,0,3.41-.05l12.77-7.87a3.72,3.72,0,0,0,1.82-3.22V93.77a10.4,10.4,0,0,0-5-8.93l-95.73-59a3.94,3.94,0,0,0-4,0L770.5,33.14a2.09,2.09,0,0,0-.43.24A2.43,2.43,0,0,0,769,35.4Z" transform="translate(-172.79 -25.21)"/><path class="cls-21" d="M769,35.4v96.49a7.91,7.91,0,0,0,3.4,6.53c.1.05.2.14.29.19l31.54,19.45,65.15,40.13a3,3,0,0,0,3.41-.05,3.18,3.18,0,0,0,1.44-2.64v-94a10,10,0,0,0-4.66-8.4L772.66,33.33a2.33,2.33,0,0,0-2.16-.19,2.09,2.09,0,0,0-.43.24A2.43,2.43,0,0,0,769,35.4Z" transform="translate(-172.79 -25.21)"/><path class="cls-29" d="M780.22,128.25V57a3.29,3.29,0,0,1,5-2.8l76.25,47A3.26,3.26,0,0,1,863,104v71.22a3.29,3.29,0,0,1-5,2.8l-76.25-47A3.29,3.29,0,0,1,780.22,128.25Z" transform="translate(-172.79 -25.21)"/><text class="cls-30" transform="matrix(1, 0.62, 0, 1, 617.96, 95.28)">Ai</text><path class="cls-4" d="M440.73,542.16a5.75,5.75,0,0,1-2.8,4.94L294.31,634.76a5.61,5.61,0,0,1-6.05,0L264.08,620l-7.22-4.42-73.29-44.68L180,568.7,175.54,566a5.5,5.5,0,0,1-2.73-4.64,5.68,5.68,0,0,1,2.73-5.24l143.17-87.36a5.91,5.91,0,0,1,6.05,0l9.58,5.82,3.54,2.14,73.58,44.53,7.08,4.28,19.39,11.72A5.75,5.75,0,0,1,440.73,542.16Z" transform="translate(-172.79 -25.21)"/><path class="cls-31" d="M184.69,541,318.5,459.29a5.43,5.43,0,0,1,5.63,0L430,523.3a5.42,5.42,0,0,1,0,9.27L295.7,614.5a5.42,5.42,0,0,1-5.65,0L184.69,550.21A5.43,5.43,0,0,1,184.69,541Z" transform="translate(-172.79 -25.21)"/><path class="cls-32" d="M423.54,526.88a2.59,2.59,0,0,0-1.08,1.94l-98.33-59.49a5.43,5.43,0,0,0-5.63,0L189.84,547.86c-3.35-.92-7.75-2-7.75-2v10.34l.15,0a5.3,5.3,0,0,0,2.45,4l105.36,64.29a5.42,5.42,0,0,0,5.65,0L430,542.62a5.18,5.18,0,0,0,2.32-3.53h.28v-11.2S425,526.17,423.54,526.88Z" transform="translate(-172.79 -25.21)"/><path class="cls-9" d="M432.58,527.92v11.17h-.28A5.1,5.1,0,0,1,430,542.6L295.7,624.55a5.51,5.51,0,0,1-5.65,0l-22.54-13.78-6.89-4.21-76-46.31a5.16,5.16,0,0,1-2.41-4.07h-.14V545.84s4.41,1.11,7.72,2l128.68-78.5a5.55,5.55,0,0,1,5.65,0l72.78,44,6.62,4,18.88,11.44c.21-.83.49-1.65,1.11-1.93C425,526.13,432.58,527.92,432.58,527.92Z" transform="translate(-172.79 -25.21)"/><path class="cls-11" d="M432.58,527.92a5.36,5.36,0,0,1-2.62,4.62l-134.26,82a5.25,5.25,0,0,1-5.65,0l-22.61-13.78-6.76-4.14-68.5-41.77-3.31-2.06-4.21-2.55a5.18,5.18,0,0,1-2.55-4.35,5.32,5.32,0,0,1,2.55-4.89l133.85-81.67a5.51,5.51,0,0,1,5.65,0l9,5.44,3.31,2,68.78,41.63,6.62,4,18.13,11A5.36,5.36,0,0,1,432.58,527.92Z" transform="translate(-172.79 -25.21)"/><polygon class="cls-33" points="94.64 575.29 94.64 575.49 94.71 585.56 87.82 581.35 87.75 571.43 87.89 571.36 224.15 488.17 232.42 483.14 239.03 487.14 230.76 492.17 94.64 575.29"/><polygon class="cls-6" points="152.38 457.81 130.76 471 174.33 497.52 196.03 484.28 152.38 457.81"/><rect class="cls-25" x="439.15" y="675.04" width="68.26" height="45.09" rx="0.57" transform="translate(1143.47 674.19) rotate(124.28)"/><rect class="cls-25" x="478.93" y="667.89" width="17.96" height="11.87" rx="0.57" transform="translate(1146.71 624.96) rotate(124.28)"/><path class="cls-11" d="M472.1,735.7a.24.24,0,0,1-.14-.05l-33.62-22.91,35.89-53.14,34,22.84-35.9,53.14Z" transform="translate(-172.79 -25.21)"/><polygon class="cls-10" points="271.78 685.41 301.8 640.98 329.18 659.38 299.05 704 271.78 685.41"/><path class="cls-34" d="M471.38,715.61s8-3.45,10.72-5.11,5.53-11,7.57-11c2.26,0,3.05,4.26.79,8.24,2-1.22,4.17-1.56,5.29-3.1,2.42-3.3,1.62-2.26,1.62-2.26s9,11.35-2.3,16.46c-6.69,3-10.15-.6-20,7.73" transform="translate(-172.79 -25.21)"/><path class="cls-4" d="M365.34,952.08c-12.89,7.13-11.26,22.39,5.24,26.55,4.86,1.23,11,.51,12.38,5.33,4.41,15,27.05,8.87,46.45.76,22.32-9.32,16.83-28.56-3.27-30-4.77-.33-10-1.51-12.2-4.35C409,944.17,396.9,934.61,365.34,952.08Z" transform="translate(-172.79 -25.21)"/><path class="cls-10" d="M369.2,954.54a5.77,5.77,0,0,0-3.11,3.52c-2.23,8.61,2.78,12,7,12.69,6.69,1.16,17.46-6.61,22.89-9.78,5.11-3,5.75-6.89,4.41-11.7-1.07-3.81-4.64-3.47-9.75-2.22C383.14,948.89,369.2,954.54,369.2,954.54Z" transform="translate(-172.79 -25.21)"/><path class="cls-21" d="M369.62,952.72c-5.74,4.72-5.47,13.56,4.19,15.41,6.49,1.24,16.62-6.5,22-9.5,3.49-2,5.8-7.24,4.31-10.35-1.71-3.56-6.7-5.15-11.66-3.92C381.12,946.17,373.89,949.21,369.62,952.72Z" transform="translate(-172.79 -25.21)"/><path class="cls-34" d="M391.55,868.34l-.27,3.7q-.37,4.88-.73,9.75-.53,6.9-1,13.8-.58,7.92-1.18,15.85t-1.19,15.91l-1.05,14-.75,10c-.12,1.65,0,3.92-.75,5.34a9.06,9.06,0,0,1-5.14,4.05c-3.58,1.09-8.65-.35-8.52-4.84.26-8.62-4.83-40.29-6.42-51.6-2.82-20,1-33,1.3-44l13.12,3.54Z" transform="translate(-172.79 -25.21)"/><path class="cls-10" d="M393.83,967a6.33,6.33,0,0,0-3.18,4.05c-1.92,9.58,3.79,12.94,8.49,13.48,7.41.86,18.73-8.33,24.5-12.14,5.41-3.58,5.87-7.92,4.1-13.11-1.41-4.11-5.3-3.51-10.83-1.82C408.77,960,393.83,967,393.83,967Z" transform="translate(-172.79 -25.21)"/><path class="cls-21" d="M394.18,965c-6,5.53-5.15,15.21,5.56,16.63,7.19,1,17.82-8.15,23.49-11.78,3.71-2.37,5.91-8.3,4.08-11.61-2.09-3.8-7.66-5.23-13-3.58C406.39,957.12,398.64,960.9,394.18,965Z" transform="translate(-172.79 -25.21)"/><path class="cls-35" d="M391.55,868.34,385,955.42a3.08,3.08,0,0,1-1,2c-.16.15-.35.31-.55.51.13-7.89.64-43.88.5-55.83-.14-13.46-4-35-4-35l-1.1-3.34Z" transform="translate(-172.79 -25.21)"/><path class="cls-34" d="M417.83,866.36l-.3,3.16-.81,8.52-1.17,12.41q-.71,7.42-1.4,14.84-.75,7.9-1.49,15.82-.74,7.67-1.45,15.32-.63,6.71-1.27,13.39-.46,5-.94,10c-.24,2.55,0,6.24-1.84,8.15a7.13,7.13,0,0,1-1,.84,11.52,11.52,0,0,1-8.41,1.74c-1.83-.35-3.81-1.75-3.67-3.85.44-6.61,0-23.38-1.36-35.51-1.71-14.87-8.69-41-1.86-65.15l18.37.1Z" transform="translate(-172.79 -25.21)"/><path class="cls-35" d="M417.83,866.36l-9.35,98.93a3.79,3.79,0,0,1-.54,1.78c-.2.21-.41.46-.68.72.57-13.89,2.93-71.83,3.21-80.55a63.29,63.29,0,0,0-1.7-17.25l.48-3.87Z" transform="translate(-172.79 -25.21)"/><path class="cls-21" d="M362.29,677.53c-.53,10.91,11,56.4,4.87,58.56-8.11,2.87-20.24-22.85-21.32-27s2.42-35.75,8.61-52.83c3.84-3.28,6.37,5.65,7.53,13.88A38,38,0,0,1,362.29,677.53Z" transform="translate(-172.79 -25.21)"/><path class="cls-14" d="M362.29,677.53c-.53,10.91,11,56.4,4.87,58.56-8.11,2.87-20.24-22.85-21.32-27s2.42-35.75,8.61-52.83c3.84-3.28,6.37,5.65,7.53,13.88A38,38,0,0,1,362.29,677.53Z" transform="translate(-172.79 -25.21)"/><path class="cls-36" d="M420.45,868.1a7.61,7.61,0,0,1-2.89,2.3c-.88.42-1.69.79-2.41,1.1-3.49,1.51-5.65,1.91-10.36,1.8-18.27-.42-37.57-9-43-11.61a2.16,2.16,0,0,1-1.22-2.17,67.35,67.35,0,0,0-.18-11.13c-.77-10.27-3.93-45.78-6.57-58.39a50.23,50.23,0,0,1-.19-18.66c.4-1.7.76-3.31,1.06-4.73.64-2.91,1.06-5,1.16-5.53a.56.56,0,0,0,0-.12l69.79,7.48C432.71,810.21,420.45,868.1,420.45,868.1Z" transform="translate(-172.79 -25.21)"/><path class="cls-10" d="M420.45,868.1a7.61,7.61,0,0,1-2.89,2.3c-.88.42-1.69.79-2.41,1.1,3.16-21.44,19-75.17,3.13-89.31-6.36-5.67-12.62-2-32.74-4.34-17.57-2-28.35-9.39-30.8-11.24.64-2.91,1.06-5,1.16-5.53l69.81,7.36C432.71,810.21,420.45,868.1,420.45,868.1Z" transform="translate(-172.79 -25.21)"/><path class="cls-21" d="M428.56,766.09a2.91,2.91,0,0,1-1.74,3.13,4,4,0,0,1-.81.31c-2,.74-4.53,1.43-6.85,2.05-.58.15-1.12.27-1.7.43s-1.35.34-1.94.46l-2.59.58c-33.37,5.14-52.87-6.46-57.85-9.94a2.32,2.32,0,0,1-.93-2.4c1.27-5.68,5.76-16.74,5.57-26.41-.85-45.64-23.09-86.21,13.15-87.64,18.91,1.7,33.76,4.56,42.27,7.66a9.29,9.29,0,0,1,1.58.73l5.15,53.26a.68.68,0,0,1-.08-.2s1.24,29.44,2,37.13a4.17,4.17,0,0,0,.08.7C424.61,752.59,427.51,760.21,428.56,766.09Z" transform="translate(-172.79 -25.21)"/><path class="cls-34" d="M422.58,610.74s3.21,22.38-2.66,28.6c-5.3,5.63-17.18,7-17.18,7l-1.66-24.9Z" transform="translate(-172.79 -25.21)"/><path class="cls-21" d="M484.78,725.59c-17.38,11.59-58,25.29-65.73,22.51-2.29-.82-4.18-4.5-5.66-9.26-3.23-10.46-4.71-26.17-5-28.29l8.32-55.5,5.51,3.81c4.21,4.75,6.51,13.62,7,19.69,1.5,16.62,3.18,35.79,3.54,43.11,0,1.12.65,1.89,1.75,1.6l42.63-12.19a3.83,3.83,0,0,1,3.54,1.12,13.54,13.54,0,0,1,3.59,4.77,13.1,13.1,0,0,1,.59,1.29C486.43,722.16,485.44,725.14,484.78,725.59Z" transform="translate(-172.79 -25.21)"/><path class="cls-14" d="M406.68,687.07c.15,5.72.43,11.44.78,17.14s.94,11.39,1.8,17a86.51,86.51,0,0,0,3.66,16.65,25.2,25.2,0,0,0,3.91,7.48,7.44,7.44,0,0,0,7.39,3.09,7.7,7.7,0,0,1-7.75-2.78,25.56,25.56,0,0,1-4.16-7.57,86.83,86.83,0,0,1-4-16.74c-.76-5.69-1.21-11.4-1.49-17.12S406.45,692.79,406.68,687.07Z" transform="translate(-172.79 -25.21)"/><path class="cls-37" d="M422.45,598.12a22.3,22.3,0,0,0-3-8.37c-10.52-17-32.91-9-35.49-8.32-35.24,8.75-10.33,54.9-32.44,75.07-1.23,1.12,0,3.31,1.46,4.17,7.22,4.31,33.06,19.53,61.68,11.48a3.6,3.6,0,0,0,2.6-4.11c-1.42-7.82-7.95-32.31-6.23-44,0,0,10.85-5.89,12.48-9.45C425.22,610.86,422.45,598.12,422.45,598.12Z" transform="translate(-172.79 -25.21)"/><path class="cls-4" d="M996.18,1031.14a3.5,3.5,0,0,0-1.93-2.6l-39.57-24.16-19.94-12.31a4.87,4.87,0,0,0-4.71,0l-29.33,18a4.42,4.42,0,0,0-2.29,3.73v.13a4.45,4.45,0,0,0,2.11,3.73l7.14,4.4,9.39,5.66,19.8,12.17,23.36,14.28a4.87,4.87,0,0,0,4.71,0l9.39-5.66,13-8.13,7.14-4.35a4,4,0,0,0,1.93-3.28v-1.62Z" transform="translate(-172.79 -25.21)"/><path class="cls-38" d="M989.53,1012v-.39C989.61,1011.72,989.65,1011.83,989.53,1012Z" transform="translate(-172.79 -25.21)"/><path class="cls-11" d="M989.53,1011.37v.19a.79.79,0,0,0-.15-.19Z" transform="translate(-172.79 -25.21)"/><path class="cls-11" d="M989.53,1012.76v14.54h-.15a3.24,3.24,0,0,1-1.51,2.25l-25.41,15.62a4.19,4.19,0,0,1-4.06,0l-37.28-22.9c.11-2.51.11-4.91.11-7.27v-6.57l17.06,10.48,20.11,12.3a4.19,4.19,0,0,0,4.06,0l8.08-4.87,11.18-7,6.15-3.76A3.42,3.42,0,0,0,989.53,1012.76Z" transform="translate(-172.79 -25.21)"/><path class="cls-38" d="M989.39,1011.38,956,1003.7l-13.55-8.38-6-3.63a3.57,3.57,0,0,0-4.05,0l-10.9,6.7-16.33-2v15h.27a3.18,3.18,0,0,0,1.54,2.23l14.11,8.66,37.28,22.9a4.16,4.16,0,0,0,3.07.39,3.84,3.84,0,0,0,1-.39l25.41-15.62a4.08,4.08,0,0,0,.94-.91,2.91,2.91,0,0,0,.58-1.34h.14v-.23c.06-.12.09-.25,0-.33v-15.36Z" transform="translate(-172.79 -25.21)"/><path class="cls-14" d="M989.39,1011.38,956,1003.7l-13.55-8.38-6-3.63a3.57,3.57,0,0,0-4.05,0l-10.9,6.7-16.33-2v15h.27a3.18,3.18,0,0,0,1.54,2.23l14.11,8.66,37.28,22.9a4.16,4.16,0,0,0,3.07.39,3.84,3.84,0,0,0,1-.39l25.41-15.62a4.08,4.08,0,0,0,.94-.91,2.91,2.91,0,0,0,.58-1.34h.14v-.23c.06-.12.09-.25,0-.33v-15.36Z" transform="translate(-172.79 -25.21)"/><path class="cls-38" d="M953.64,988.32c-.85.58-1.39,1-1.66,1.12l-9.52,5.88-7.65,4.6-8.13,5c-.54.27-2.63,1.66-5.45,3.48l-8.08-4.87L907,999.77a3.85,3.85,0,0,1-1.82-3.21v-.12a3.8,3.8,0,0,1,2-3.21l25.26-15.51a4.19,4.19,0,0,1,4.06,0Z" transform="translate(-172.79 -25.21)"/><path class="cls-38" d="M989.53,1011.37v1.39a3.42,3.42,0,0,1-1.66,2.82l-6.15,3.76-11.18,7-8.08,4.87a4.19,4.19,0,0,1-4.06,0l-20.11-12.3-17.06-10.48c2.82-1.82,4.91-3.21,5.45-3.48l8.13-5,7.65-4.6,9.52-5.88c.27-.12.81-.54,1.66-1.12l34.08,20.81a3,3,0,0,1,1.66,2.24Z" transform="translate(-172.79 -25.21)"/><path class="cls-5" d="M828.27,462.89,812.33,388.4l-48.42-24.21-31.09,40.45,41.34,114.09,3.4-71-1.9,71.94Zm-61.73-35.47c0-10.44,6.27-18.91,14-18.91s14,8.47,14,18.91-6.26,18.91-14,18.91S766.54,437.86,766.54,427.42Z" transform="translate(-172.79 -25.21)"/><path class="cls-13" d="M752.2,337.57V360.2a3,3,0,0,0,1.46,2.59l70,42.71a3,3,0,0,0,4.62-2.59V379.72a3.05,3.05,0,0,0-1.47-2.61l-70-42.14A3,3,0,0,0,752.2,337.57Z" transform="translate(-172.79 -25.21)"/><path class="cls-14" d="M752.2,337.57V360.2a3,3,0,0,0,1.46,2.59l70,42.71a3,3,0,0,0,4.62-2.59V379.72a3.05,3.05,0,0,0-1.47-2.61l-70-42.14A3,3,0,0,0,752.2,337.57Z" transform="translate(-172.79 -25.21)"/><polygon class="cls-13" points="572.7 309.32 582.51 309.32 583 313.88 574.61 316.78 571.87 314.53 572.7 309.32"/><polygon class="cls-14" points="572.7 309.32 582.51 309.32 583 313.88 574.61 316.78 571.87 314.53 572.7 309.32"/><path class="cls-13" d="M825.29,406H815.6s-.18-2.88.14-3.34,1.27-2.5,1.27-2.5l3.41-.14,2.55,1.64Z" transform="translate(-172.79 -25.21)"/><path class="cls-14" d="M825.29,406H815.6s-.18-2.88.14-3.34,1.27-2.5,1.27-2.5l3.41-.14,2.55,1.64Z" transform="translate(-172.79 -25.21)"/><path class="cls-5" d="M774.16,515.93H763.44l-2-23.22,2.24-6s4.37-1.62,5.5-.65S774.16,515.93,774.16,515.93Z" transform="translate(-172.79 -25.21)"/><polygon class="cls-5" points="602.86 494.45 593.16 494.45 600.55 478.56 607.75 474.38 610.38 480.51 602.86 494.45"/><path class="cls-9" d="M818.56,462.89,802.63,388.4l-48.42-24.21-31.1,40.45,40.33,111.29,4.42-68.2L766,519.67Zm-61.72-35.47c0-10.44,6.26-18.91,14-18.91s14,8.47,14,18.91-6.27,18.91-14,18.91S756.84,437.86,756.84,427.42Z" transform="translate(-172.79 -25.21)"/><path class="cls-13" d="M742.5,337.57V360.2a3,3,0,0,0,1.46,2.59l70,42.71a3,3,0,0,0,4.62-2.59V379.72a3,3,0,0,0-1.47-2.61L747.1,335A3,3,0,0,0,742.5,337.57Z" transform="translate(-172.79 -25.21)"/><polyline class="cls-39" points="697.5 572.95 697.5 573.45 697.07 573.19"/><line class="cls-40" x1="695.36" y1="572.13" x2="513.96" y2="460.13"/><polyline class="cls-41" points="513.11 459.6 512.68 459.34 512.68 458.84"/><line class="cls-42" x1="512.68" y1="456.85" x2="512.68" y2="246.09"/><polyline class="cls-43" points="512.68 245.1 512.68 244.6 513.11 244.86"/><line class="cls-44" x1="514.82" y1="245.92" x2="696.21" y2="357.93"/><polyline class="cls-45" points="697.07 358.45 697.5 358.72 697.5 359.22"/><line class="cls-46" x1="697.5" y1="361.21" x2="697.5" y2="571.96"/><circle class="cls-47" cx="513.12" cy="242.79" r="6.19"/><circle class="cls-48" cx="697.5" cy="359" r="6.19"/><circle class="cls-49" cx="697.5" cy="573.97" r="6.19"/><path class="cls-50" d="M692,485.79a6.2,6.2,0,1,1-6.2-6.19A6.2,6.2,0,0,1,692,485.79Z" transform="translate(-172.79 -25.21)"/></g></g></svg>